<?xml version="1.0" encoding="UTF-8" standalone="no"?>
<!-- Created with Inkscape (http://www.inkscape.org/) -->

<svg
   xmlns:dc="http://purl.org/dc/elements/1.1/"
   xmlns:cc="http://creativecommons.org/ns#"
   xmlns:rdf="http://www.w3.org/1999/02/22-rdf-syntax-ns#"
   xmlns:svg="http://www.w3.org/2000/svg"
   xmlns="http://www.w3.org/2000/svg"
   xmlns:sodipodi="http://sodipodi.sourceforge.net/DTD/sodipodi-0.dtd"
   xmlns:inkscape="http://www.inkscape.org/namespaces/inkscape"
   width="15"
   height="15"
   viewBox="0 0 15 0"
   id="svg2"
   version="1.1"
   inkscape:version="0.91 r13725"
   sodipodi:docname="icons.svg">
  <defs
     id="defs4" />
  <sodipodi:namedview
     id="base"
     pagecolor="#ffffff"
     bordercolor="#666666"
     borderopacity="1.0"
     inkscape:pageopacity="0.0"
     inkscape:pageshadow="2"
     inkscape:zoom="16"
     inkscape:cx="-135.55943"
     inkscape:cy="31.112388"
     inkscape:document-units="px"
     inkscape:current-layer="layer1"
     showgrid="true"
     units="px"
     inkscape:snap-bbox="false"
     inkscape:bbox-nodes="false"
     inkscape:snap-bbox-edge-midpoints="false"
     inkscape:snap-bbox-midpoints="false"
     inkscape:bbox-paths="false"
     inkscape:object-nodes="true"
     showborder="true"
     inkscape:showpageshadow="false"
     inkscape:window-width="1855"
     inkscape:window-height="1056"
     inkscape:window-x="65"
     inkscape:window-y="24"
     inkscape:window-maximized="1"
     inkscape:snap-global="true"
     inkscape:snap-nodes="true"
     inkscape:snap-others="false"
     inkscape:snap-intersection-paths="true"
     inkscape:object-paths="true"
     inkscape:snap-midpoints="true"
     inkscape:snap-smooth-nodes="true"
     inkscape:snap-object-midpoints="false"
     inkscape:snap-center="false"
     inkscape:snap-page="false"
     inkscape:snap-text-baseline="false"
     inkscape:snap-grids="true"
     inkscape:snap-to-guides="false"
     showguides="false">
    <inkscape:grid
       type="xygrid"
       id="grid4136" />
  </sodipodi:namedview>
  <metadata
     id="metadata7">
    <rdf:RDF>
      <cc:Work
         rdf:about="">
        <dc:format>image/svg+xml</dc:format>
        <dc:type
           rdf:resource="http://purl.org/dc/dcmitype/StillImage" />
        <dc:title />
      </cc:Work>
    </rdf:RDF>
  </metadata>
  <g
     inkscape:label="Layer 1"
     inkscape:groupmode="layer"
     id="layer1"
     transform="translate(0,-1137.3622)">
    <path
       style="color:#000000;font-style:normal;font-variant:normal;font-weight:normal;font-stretch:normal;font-size:medium;line-height:normal;font-family:sans-serif;text-indent:0;text-align:start;text-decoration:none;text-decoration-line:none;text-decoration-style:solid;text-decoration-color:#000000;letter-spacing:normal;word-spacing:normal;text-transform:none;direction:ltr;block-progression:tb;writing-mode:lr-tb;baseline-shift:baseline;text-anchor:start;white-space:normal;clip-rule:nonzero;display:inline;overflow:visible;visibility:visible;opacity:1;isolation:auto;mix-blend-mode:normal;color-interpolation:sRGB;color-interpolation-filters:linearRGB;solid-color:#000000;solid-opacity:1;fill:#4d4849;fill-opacity:1;fill-rule:nonzero;stroke:none;stroke-width:0.99999994;stroke-linecap:square;stroke-linejoin:miter;stroke-miterlimit:4;stroke-dasharray:none;stroke-dashoffset:0;stroke-opacity:1;color-rendering:auto;image-rendering:auto;shape-rendering:auto;text-rendering:auto;enable-background:accumulate"
       d="m 32.392579,1087.3622 c -2.736067,0 -4.8125,2.0531 -4.8125,4.793 0,1.1894 0.406935,2.2481 1.072265,3.084 -1.379944,0.5588 -2.147709,1.4537 -2.603515,2.4238 C 25.582071,1098.6564 25,1102.3622 25,1102.3622 l 1,0 13,0 0.787109,0 c 0,0 -0.58207,-3.7058 -1.048828,-4.6992 -0.455618,-0.9697 -1.224553,-1.865 -2.603515,-2.4238 0.665746,-0.8359 1.072265,-1.8946 1.072265,-3.084 0,-2.7399 -2.078384,-4.793 -4.814452,-4.793 z m 0,1 c 2.256208,0 3.814452,1.5382 3.814452,3.793 0,2.2548 -1.568734,3.873 -3.814452,3.873 -2.245717,0 -3.8125,-1.6182 -3.8125,-3.873 0,-2.2548 1.556293,-3.793 3.8125,-3.793 z m -2.970704,7.6445 c 0.808698,0.6329 1.823721,1.0215 2.970704,1.0215 1.147351,0 2.163443,-0.3882 2.972655,-1.0215 l 0.314454,0.1211 c 1.227924,0.4724 1.759673,1.1253 2.152343,1.961 0.227622,0.4844 0.500445,2.5087 0.650391,3.2734 l -12.177734,0 c 0.149946,-0.7647 0.422769,-2.789 0.650391,-3.2734 0.392669,-0.8357 0.924419,-1.4886 2.152343,-1.961 z"
       id="path5918-9"
       inkscape:connector-curvature="0"
       sodipodi:nodetypes="sscsccccscssssssscscccccccc" />
    <g
       id="g6848"
       style="stroke:#444444;stroke-width:1.05843306;stroke-linecap:square;stroke-opacity:1"
       transform="matrix(0.94479294,0,0,0.9447929,-91.460815,-330.72449)" />
    <text
       xml:space="preserve"
       style="font-style:normal;font-variant:normal;font-weight:900;font-stretch:normal;font-size:28.24827576px;line-height:125%;font-family:'Playfair Display';-inkscape-font-specification:'Playfair Display, Heavy';text-align:start;letter-spacing:0px;word-spacing:0px;writing-mode:lr-tb;text-anchor:start;fill:#4d4849;fill-opacity:1;stroke:none;stroke-width:1px;stroke-linecap:butt;stroke-linejoin:miter;stroke-opacity:1;"
       x="-50.75"
       y="1067.3622"
       id="text5224"
       sodipodi:linespacing="125%"><tspan
         sodipodi:role="line"
         id="tspan5226"
         x="-50.75"
         y="1067.3622">B</tspan></text>
    <text
       xml:space="preserve"
       style="font-style:italic;font-variant:normal;font-weight:normal;font-stretch:normal;font-size:28.24827576px;line-height:125%;font-family:'Playfair Display';-inkscape-font-specification:'Playfair Display, Italic';text-align:start;letter-spacing:0px;word-spacing:0px;writing-mode:lr-tb;text-anchor:start;fill:#4d4849;fill-opacity:1;stroke:none;stroke-width:1px;stroke-linecap:butt;stroke-linejoin:miter;stroke-opacity:1;"
       x="-29"
       y="1067.3622"
       id="text5224-6"
       sodipodi:linespacing="125%"><tspan
         sodipodi:role="line"
         id="tspan5226-1"
         x="-29"
         y="1067.3622">I</tspan></text>
    <path
       inkscape:connector-curvature="0"
       id="rect6937"
       d="m 42.15555,1047.4797 c -1.285895,-0.3096 -2.655282,-0.012 -3.622307,0.9543 l -2.649258,2.6504 c -1.367646,1.3677 -1.392033,3.5386 -0.262068,5.1427 l -1.167638,1.1681 c -1.603909,-1.1309 -3.775068,-1.1058 -5.142941,0.2621 l -2.64885,2.649 c -1.547267,1.5472 -1.379517,4.1254 0.239317,5.7444 1.618861,1.6187 4.196486,1.7861 5.743722,0.2388 l 2.648851,-2.6489 c 1.367643,-1.3677 1.392227,-3.5387 0.262067,-5.1427 l 1.167638,-1.1681 c 1.604105,1.1307 3.775064,1.1059 5.142942,-0.262 l 2.650727,-2.65 c 1.54724,-1.5472 1.377638,-4.1245 -0.241194,-5.7433 -0.607054,-0.6071 -1.349327,-1.0096 -2.121008,-1.1948 z m -0.341026,1.5077 c 0.481609,0.1174 0.953904,0.3809 1.361144,0.7882 1.086044,1.0859 1.133138,2.6492 0.24101,3.5412 l -2.649289,2.6506 c -0.731834,0.7319 -1.912888,0.8197 -2.914266,0.2326 l 1.489823,-1.4895 a 0.77846518,0.77846518 0 0 0 3.56e-4,-1.1173 0.77846518,0.77846518 0 0 0 -1.101432,0.017 l -1.489854,1.4896 c -0.58701,-1.0012 -0.498859,-2.182 0.233046,-2.9139 l 2.650728,-2.6501 c 0.557603,-0.5575 1.377235,-0.748 2.178734,-0.5479 z m -9.222965,9.2214 c 0.252225,0.056 0.495812,0.1747 0.734095,0.3148 l -1.490232,1.4909 a 0.77890188,0.77890188 0 1 0 1.100698,1.1023 l 1.492107,-1.4921 c 0.587618,1.0016 0.498595,2.1833 -0.233455,2.9154 l -2.64885,2.6489 c -0.892154,0.8923 -2.457208,0.8465 -3.543222,-0.2396 -1.086013,-1.086 -1.131259,-2.6503 -0.239134,-3.5423 l 2.648879,-2.649 c 0.557572,-0.5576 1.377614,-0.7494 2.179114,-0.5493 z"
       style="color:#000000;font-style:normal;font-variant:normal;font-weight:normal;font-stretch:normal;font-size:medium;line-height:normal;font-family:sans-serif;text-indent:0;text-align:start;text-decoration:none;text-decoration-line:none;text-decoration-style:solid;text-decoration-color:#000000;letter-spacing:normal;word-spacing:normal;text-transform:none;direction:ltr;block-progression:tb;writing-mode:lr-tb;baseline-shift:baseline;text-anchor:start;white-space:normal;clip-rule:nonzero;display:inline;overflow:visible;visibility:visible;opacity:1;isolation:auto;mix-blend-mode:normal;color-interpolation:sRGB;color-interpolation-filters:linearRGB;solid-color:#000000;solid-opacity:1;fill:#4d4849;fill-opacity:1;fill-rule:nonzero;stroke:none;stroke-width:1.94826782;stroke-linecap:square;stroke-linejoin:miter;stroke-miterlimit:4;stroke-dasharray:none;stroke-dashoffset:0;stroke-opacity:1;color-rendering:auto;image-rendering:auto;shape-rendering:auto;text-rendering:auto;enable-background:accumulate" />
    <path
       style="fill:#4d4849;fill-opacity:1;fill-rule:evenodd;stroke:none;stroke-width:1;stroke-linecap:round;stroke-linejoin:round;stroke-miterlimit:4;stroke-dasharray:none;stroke-opacity:1"
       d="m 65.167969,1088.3622 -14.929688,8.9571 -0.238281,5.0429 2.919922,-2.6953 1.748047,1.5293 10.5,-12.834 z m 0,0 -19.833985,4.668 3.056641,2.6719 16.777344,-7.3399 z"
       id="path5539"
       inkscape:connector-curvature="0" />
    <path
       style="opacity:1;fill:#4d4849;fill-opacity:1;fill-rule:nonzero;stroke:none;stroke-width:1;stroke-linecap:square;stroke-linejoin:miter;stroke-miterlimit:4;stroke-dasharray:none;stroke-opacity:1"
       d="m -55,1087.3622 0,7 -7,0 0,1 7,0 0,7 1,0 0,-7 7,0 0,-1 -7,0 0,-7 -1,0 z"
       id="rect8755"
       inkscape:connector-curvature="0" />
    <path
       style="opacity:1;fill:#4d4849;fill-opacity:1;fill-rule:nonzero;stroke:none;stroke-width:1;stroke-linecap:square;stroke-linejoin:miter;stroke-miterlimit:4;stroke-dasharray:none;stroke-opacity:1"
       d="m -12.5,-49.992188 c -0.822361,0 -1.5,0.6777 -1.5,1.5 L -14,-47 l -5,0 0,1 1,0 0,8.791016 c 0,1.2223 1.000303,2.220703 2.222656,2.220703 l 8.5546878,0 C -6.0003053,-34.988281 -5,-35.986684 -5,-37.208984 L -5,-46 l 1,0 0,-1 -5,0 0,-1.492188 c 0,-0.8223 -0.677639,-1.5 -1.5,-1.5 z m 0,1 2,0 c 0.285658,0 0.5,0.214401 0.5,0.5 L -10,-47 l -3,0 0,-1.492188 c 0,-0.285599 0.214342,-0.5 0.5,-0.5 z M -17,-46 l 11,0 0,8.791016 c 0,0.6856 -0.5370343,1.220703 -1.2226562,1.220703 l -8.5546878,0 c -0.685622,0 -1.222656,-0.535103 -1.222656,-1.220703 z m 2,2 0,0.5 0,5.125 0,0.498047 1,0 0,-0.498047 0,-5.125 0,-0.5 z m 3,0 0,0.5 0,5.125 0,0.498047 1,0 0,-0.498047 0,-5.125 0,-0.5 z m 3,0 0,0.5 0,5.125 0,0.498047 1,0 0,-0.498047 0,-5.125 0,-0.5 z"
       transform="translate(0,1137.3622)"
       id="rect8841"
       inkscape:connector-curvature="0"
       sodipodi:nodetypes="ssccccssssccccssssssccssccsssscccccccccccccccccccccccccccc" />
    <path
       style="color:#000000;font-style:normal;font-variant:normal;font-weight:normal;font-stretch:normal;font-size:medium;line-height:normal;font-family:sans-serif;text-indent:0;text-align:start;text-decoration:none;text-decoration-line:none;text-decoration-style:solid;text-decoration-color:#000000;letter-spacing:normal;word-spacing:normal;text-transform:none;direction:ltr;block-progression:tb;writing-mode:lr-tb;baseline-shift:baseline;text-anchor:start;white-space:normal;clip-rule:nonzero;display:inline;overflow:visible;visibility:visible;opacity:1;isolation:auto;mix-blend-mode:normal;color-interpolation:sRGB;color-interpolation-filters:linearRGB;solid-color:#000000;solid-opacity:1;fill:#4d4849;fill-opacity:1;fill-rule:nonzero;stroke:none;stroke-width:1;stroke-linecap:square;stroke-linejoin:miter;stroke-miterlimit:4;stroke-dasharray:none;stroke-dashoffset:0;stroke-opacity:1;color-rendering:auto;image-rendering:auto;shape-rendering:auto;text-rendering:auto;enable-background:accumulate"
       d="m 1.5,1107.3622 c -1.376427,0 -2.5,0 -2.5,0 l 0,15 c 0,0 1.123638,0 2.5,0 l 3.5,0 0,-1 -3.5,0 c -0.839633,0 -1.5,0 -1.5,0 l 0,-13 c 0,0 0.66034,0 1.5,0 l 3.5,0 0,-1 z m 7.5,0 7.001953,7 -12.001953,0 0,1 12.001953,0 -7.001953,7 1.417969,0 6.998047,-7 0.5,-0.5 -0.5,-0.5 -7,-7 z"
       id="rect8870"
       inkscape:connector-curvature="0"
       sodipodi:nodetypes="sccsccsccsccscccccccccccc" />
    <path
       style="color:#000000;font-style:normal;font-variant:normal;font-weight:normal;font-stretch:normal;font-size:medium;line-height:normal;font-family:sans-serif;text-indent:0;text-align:start;text-decoration:none;text-decoration-line:none;text-decoration-style:solid;text-decoration-color:#000000;letter-spacing:normal;word-spacing:normal;text-transform:none;direction:ltr;block-progression:tb;writing-mode:lr-tb;baseline-shift:baseline;text-anchor:start;white-space:normal;clip-rule:nonzero;display:inline;overflow:visible;visibility:visible;opacity:1;isolation:auto;mix-blend-mode:normal;color-interpolation:sRGB;color-interpolation-filters:linearRGB;solid-color:#000000;solid-opacity:1;fill:#4d4849;fill-opacity:1;fill-rule:nonzero;stroke:none;stroke-width:1;stroke-linecap:square;stroke-linejoin:miter;stroke-miterlimit:4;stroke-dasharray:none;stroke-dashoffset:0;stroke-opacity:1;color-rendering:auto;image-rendering:auto;shape-rendering:auto;text-rendering:auto;enable-background:accumulate"
       d="m 6,1087.3622 7.001953,7 -12.001953,0 0,1 12.001953,0 -7.001953,7 1.4179688,0 6.9980472,-7 0.5,-0.5 -0.5,-0.5 -7.0000004,-7 z m 8,0 0,1 5,0 c 0,0 0,0.6603 0,1.5 l 0,10 c 0,0.8396 0,1.5 0,1.5 l -5,0 0,1 6,0 c 0,0 0,-1.1237 0,-2.5 l 0,-10 c 0,-1.3764 0,-2.5 0,-2.5 z"
       id="rect8870-8"
       inkscape:connector-curvature="0"
       sodipodi:nodetypes="cccccccccccccccssccccsscc" />
    <path
       style="color:#000000;font-style:normal;font-variant:normal;font-weight:normal;font-stretch:normal;font-size:medium;line-height:normal;font-family:sans-serif;text-indent:0;text-align:start;text-decoration:none;text-decoration-line:none;text-decoration-style:solid;text-decoration-color:#000000;letter-spacing:normal;word-spacing:normal;text-transform:none;direction:ltr;block-progression:tb;writing-mode:lr-tb;baseline-shift:baseline;text-anchor:start;white-space:normal;clip-rule:nonzero;display:inline;overflow:visible;visibility:visible;opacity:1;isolation:auto;mix-blend-mode:normal;color-interpolation:sRGB;color-interpolation-filters:linearRGB;solid-color:#000000;solid-opacity:1;fill:#4d4849;fill-opacity:1;fill-rule:nonzero;stroke:none;stroke-width:0.99999994;stroke-linecap:square;stroke-linejoin:miter;stroke-miterlimit:4;stroke-dasharray:none;stroke-dashoffset:0;stroke-opacity:1;color-rendering:auto;image-rendering:auto;shape-rendering:auto;text-rendering:auto;enable-background:accumulate"
       d="M 32.392578 -30 C 29.656511 -30 27.580078 -27.946931 27.580078 -25.207031 C 27.580078 -24.017631 27.987014 -22.958947 28.652344 -22.123047 C 27.2724 -21.564247 26.504634 -20.669319 26.048828 -19.699219 C 25.58207 -18.705819 25 -15 25 -15 L 26 -15 L 39 -15 L 39.787109 -15 C 39.787109 -15 39.488354 -16.879683 39.148438 -18.322266 C 40.814242 -18.982807 42 -20.603326 42 -22.5 C 42 -24.9794 39.979359 -27 37.5 -27 C 37.291796 -27 37.093388 -26.96507 36.892578 -26.9375 C 36.221338 -28.763292 34.509873 -30 32.392578 -30 z M 32.392578 -29 C 34.101933 -29 35.40546 -28.11362 35.939453 -26.705078 C 34.228854 -26.066984 33 -24.428975 33 -22.5 C 33 -22.120012 33.06108 -21.757116 33.150391 -21.404297 C 32.907301 -21.361447 32.655687 -21.333984 32.392578 -21.333984 C 30.146861 -21.333984 28.580078 -22.952231 28.580078 -25.207031 C 28.580078 -27.461831 30.136371 -29.000003 32.392578 -29 z M 37 -25 L 38 -25 L 38 -24.417969 L 38 -23 L 39.474609 -23 L 40 -23 L 40 -22 L 39.474609 -22 L 38 -22 L 38 -20.582031 L 38 -20 L 37 -20 L 37 -20.582031 L 37 -22 L 35.525391 -22 L 35 -22 L 35 -23 L 35.525391 -23 L 37 -23 L 37 -24.417969 L 37 -25 z M 29.421875 -21.355469 C 30.230573 -20.722569 31.245595 -20.333984 32.392578 -20.333984 C 32.780823 -20.333984 33.146697 -20.393204 33.501953 -20.476562 C 34.246292 -19.014311 35.751361 -18 37.5 -18 C 37.713504 -18 37.917343 -18.03353 38.123047 -18.0625 C 38.261676 -17.312044 38.394445 -16.448668 38.482422 -16 L 26.304688 -16 C 26.454632 -16.7647 26.727456 -18.789037 26.955078 -19.273438 C 27.347747 -20.109137 27.879498 -20.761975 29.107422 -21.234375 L 29.421875 -21.355469 z "
       transform="translate(0,1137.3622)"
       id="path5918-9-0" />
    <path
       style="color:#000000;font-style:normal;font-variant:normal;font-weight:normal;font-stretch:normal;font-size:medium;line-height:normal;font-family:sans-serif;text-indent:0;text-align:start;text-decoration:none;text-decoration-line:none;text-decoration-style:solid;text-decoration-color:#000000;letter-spacing:normal;word-spacing:normal;text-transform:none;direction:ltr;block-progression:tb;writing-mode:lr-tb;baseline-shift:baseline;text-anchor:start;white-space:normal;clip-rule:nonzero;display:inline;overflow:visible;visibility:visible;opacity:1;isolation:auto;mix-blend-mode:normal;color-interpolation:sRGB;color-interpolation-filters:linearRGB;solid-color:#000000;solid-opacity:1;fill:#4d4849;fill-opacity:1;fill-rule:nonzero;stroke:none;stroke-width:1;stroke-linecap:square;stroke-linejoin:miter;stroke-miterlimit:4;stroke-dasharray:none;stroke-dashoffset:0;stroke-opacity:1;color-rendering:auto;image-rendering:auto;shape-rendering:auto;text-rendering:auto;enable-background:accumulate"
       d="m -34.5,1087.3622 c -4.136213,0 -7.5,3.3638 -7.5,7.5 0,4.1362 3.363787,7.5 7.5,7.5 4.136213,0 7.5,-3.3638 7.5,-7.5 0,-4.1362 -3.363787,-7.5 -7.5,-7.5 z m 0,1 c 3.595773,0 6.5,2.9043 6.5,6.5 0,3.5958 -2.904227,6.5 -6.5,6.5 -3.595773,0 -6.5,-2.9042 -6.5,-6.5 0,-3.5957 2.904227,-6.5 6.5,-6.5 z m -0.5,2 0,5 3.236328,3.2363 0.708984,-0.707 -2.945312,-2.9434 0,-4.5859 -1,0 z"
       id="path9001"
       inkscape:connector-curvature="0" />
    <path
       style="color:#000000;font-style:normal;font-variant:normal;font-weight:normal;font-stretch:normal;font-size:medium;line-height:normal;font-family:sans-serif;text-indent:0;text-align:start;text-decoration:none;text-decoration-line:none;text-decoration-style:solid;text-decoration-color:#000000;letter-spacing:normal;word-spacing:normal;text-transform:none;direction:ltr;block-progression:tb;writing-mode:lr-tb;baseline-shift:baseline;text-anchor:start;white-space:normal;clip-rule:nonzero;display:inline;overflow:visible;visibility:visible;opacity:1;isolation:auto;mix-blend-mode:normal;color-interpolation:sRGB;color-interpolation-filters:linearRGB;solid-color:#000000;solid-opacity:1;fill:#4d4849;fill-opacity:1;fill-rule:nonzero;stroke:none;stroke-width:1;stroke-linecap:butt;stroke-linejoin:miter;stroke-miterlimit:4;stroke-dasharray:none;stroke-dashoffset:0;stroke-opacity:1;color-rendering:auto;image-rendering:auto;shape-rendering:auto;text-rendering:auto;enable-background:accumulate"
       d="m 76.078125,1087.3602 c -2.437958,0 -4.423828,1.9959 -4.423828,4.4414 0,2.1363 1.08741,3.7602 2.597656,5.2774 1.510246,1.5172 3.462528,2.9868 5.394531,4.9277 L 80,1102.3622 l 0.353516,-0.3555 c 1.932004,-1.9409 3.884291,-3.4105 5.394531,-4.9277 1.51024,-1.5172 2.597656,-3.1411 2.597656,-5.2774 0,-2.4305 -1.886282,-4.4414 -4.324219,-4.4414 -2.54809,0 -3.552763,1.5801 -4.017578,2.4981 -0.457872,-0.918 -1.443696,-2.4981 -3.925781,-2.4981 z m 0,1 c 2.607236,0 3.447266,2.6133 3.447266,2.6133 L 80,1092.4032 l 0.474609,-1.4297 c 0,0 0.830754,-2.6133 3.546875,-2.6133 1.89503,0 3.324219,1.5188 3.324219,3.4414 0,1.8045 -0.874787,3.1339 -2.306641,4.5723 -1.338072,1.3442 -3.18314,2.7954 -5.039062,4.6035 -1.855923,-1.8081 -3.700984,-3.2593 -5.039063,-4.6035 -1.431859,-1.4384 -2.30664,-2.7678 -2.30664,-4.5723 0,-1.9076 1.528772,-3.4414 3.423828,-3.4414 z"
       id="path4254-2-4"
       inkscape:connector-curvature="0" />
    <path
       style="color:#000000;font-style:normal;font-variant:normal;font-weight:normal;font-stretch:normal;font-size:medium;line-height:normal;font-family:sans-serif;text-indent:0;text-align:start;text-decoration:none;text-decoration-line:none;text-decoration-style:solid;text-decoration-color:#000000;letter-spacing:normal;word-spacing:normal;text-transform:none;direction:ltr;block-progression:tb;writing-mode:lr-tb;baseline-shift:baseline;text-anchor:start;white-space:normal;clip-rule:nonzero;display:inline;overflow:visible;visibility:visible;opacity:1;isolation:auto;mix-blend-mode:normal;color-interpolation:sRGB;color-interpolation-filters:linearRGB;solid-color:#000000;solid-opacity:1;fill:#4d4849;fill-opacity:1;fill-rule:evenodd;stroke:none;stroke-width:1;stroke-linecap:square;stroke-linejoin:miter;stroke-miterlimit:4;stroke-dasharray:none;stroke-dashoffset:0;stroke-opacity:1;color-rendering:auto;image-rendering:auto;shape-rendering:auto;text-rendering:auto;enable-background:accumulate"
       d="m 70,1107.3622 -0.705078,0.709 0.353515,0.3535 6.464844,6.4395 -6.464844,6.4375 -0.353515,0.3535 0.705078,0.707 0.353516,-0.3515 7.175781,-7.1465 -7.175781,-7.1485 L 70,1107.3622 Z"
       id="path5165-9"
       inkscape:connector-curvature="0" />
    <path
       style="color:#000000;font-style:normal;font-variant:normal;font-weight:normal;font-stretch:normal;font-size:medium;line-height:normal;font-family:sans-serif;text-indent:0;text-align:start;text-decoration:none;text-decoration-line:none;text-decoration-style:solid;text-decoration-color:#000000;letter-spacing:normal;word-spacing:normal;text-transform:none;direction:ltr;block-progression:tb;writing-mode:lr-tb;baseline-shift:baseline;text-anchor:start;white-space:normal;clip-rule:nonzero;display:inline;overflow:visible;visibility:visible;opacity:1;isolation:auto;mix-blend-mode:normal;color-interpolation:sRGB;color-interpolation-filters:linearRGB;solid-color:#000000;solid-opacity:1;fill:#4d4849;fill-opacity:1;fill-rule:evenodd;stroke:none;stroke-width:1;stroke-linecap:square;stroke-linejoin:miter;stroke-miterlimit:4;stroke-dasharray:none;stroke-dashoffset:0;stroke-opacity:1;color-rendering:auto;image-rendering:auto;shape-rendering:auto;text-rendering:auto;enable-background:accumulate"
       d="m 89,1122.3622 0.705078,-0.709 -0.353515,-0.3535 -6.464844,-6.4395 6.464844,-6.4375 0.353515,-0.3535 -0.705078,-0.707 -0.353516,0.3515 -7.175781,7.1465 7.175781,7.1485 L 89,1122.3622 Z"
       id="path5165-9-5"
       inkscape:connector-curvature="0" />
    <path
       style="color:#000000;font-style:normal;font-variant:normal;font-weight:normal;font-stretch:normal;font-size:medium;line-height:normal;font-family:sans-serif;text-indent:0;text-align:start;text-decoration:none;text-decoration-line:none;text-decoration-style:solid;text-decoration-color:#000000;letter-spacing:normal;word-spacing:normal;text-transform:none;direction:ltr;block-progression:tb;writing-mode:lr-tb;baseline-shift:baseline;text-anchor:start;white-space:normal;clip-rule:nonzero;display:inline;overflow:visible;visibility:visible;opacity:1;isolation:auto;mix-blend-mode:normal;color-interpolation:sRGB;color-interpolation-filters:linearRGB;solid-color:#000000;solid-opacity:1;fill:#4d4849;fill-opacity:1;fill-rule:evenodd;stroke:none;stroke-width:1;stroke-linecap:butt;stroke-linejoin:miter;stroke-miterlimit:4;stroke-dasharray:none;stroke-dashoffset:0;stroke-opacity:1;color-rendering:auto;image-rendering:auto;shape-rendering:auto;text-rendering:auto;enable-background:accumulate"
       d="m 95,1107.3622 -0.707031,0.707 6.792971,6.793 -6.792971,6.793 0.707031,0.707 6.79297,-6.793 6.79297,6.793 0.70703,-0.707 -6.79297,-6.793 6.79297,-6.793 -0.70703,-0.707 -6.79297,6.793 L 95,1107.3622 Z"
       id="path9890"
       inkscape:connector-curvature="0" />
    <path
       style="color:#000000;font-style:normal;font-variant:normal;font-weight:normal;font-stretch:normal;font-size:medium;line-height:normal;font-family:sans-serif;text-indent:0;text-align:start;text-decoration:none;text-decoration-line:none;text-decoration-style:solid;text-decoration-color:#000000;letter-spacing:normal;word-spacing:normal;text-transform:none;direction:ltr;block-progression:tb;writing-mode:lr-tb;baseline-shift:baseline;text-anchor:start;white-space:normal;clip-rule:nonzero;display:inline;overflow:visible;visibility:visible;opacity:1;isolation:auto;mix-blend-mode:normal;color-interpolation:sRGB;color-interpolation-filters:linearRGB;solid-color:#000000;solid-opacity:1;fill:#4d4849;fill-opacity:1;fill-rule:evenodd;stroke:none;stroke-width:1px;stroke-linecap:butt;stroke-linejoin:miter;stroke-miterlimit:4;stroke-dasharray:none;stroke-dashoffset:0;stroke-opacity:1;color-rendering:auto;image-rendering:auto;shape-rendering:auto;text-rendering:auto;enable-background:accumulate"
       d="m 116,1094.3622 -0.70703,0.709 13.29297,13.291 -13.29297,13.293 0.70703,0.707 13.29297,-13.293 13.29297,13.293 0.70703,-0.707 -13.29297,-13.293 13.29297,-13.291 -0.70703,-0.709 -13.29297,13.293 L 116,1094.3622 Z"
       id="path9914"
       inkscape:connector-curvature="0" />
    <path
       style="color:#000000;font-style:normal;font-variant:normal;font-weight:normal;font-stretch:normal;font-size:medium;line-height:normal;font-family:sans-serif;text-indent:0;text-align:start;text-decoration:none;text-decoration-line:none;text-decoration-style:solid;text-decoration-color:#000000;letter-spacing:normal;word-spacing:normal;text-transform:none;direction:ltr;block-progression:tb;writing-mode:lr-tb;baseline-shift:baseline;text-anchor:start;white-space:normal;clip-rule:nonzero;display:inline;overflow:visible;visibility:visible;opacity:1;isolation:auto;mix-blend-mode:normal;color-interpolation:sRGB;color-interpolation-filters:linearRGB;solid-color:#000000;solid-opacity:1;fill:#4d4849;fill-opacity:1;fill-rule:evenodd;stroke:none;stroke-width:1;stroke-linecap:square;stroke-linejoin:miter;stroke-miterlimit:4;stroke-dasharray:none;stroke-dashoffset:0;stroke-opacity:1;color-rendering:auto;image-rendering:auto;shape-rendering:auto;text-rendering:auto;enable-background:accumulate"
       d="m 162.293,1108.0673 -0.709,-0.7051 -0.3535,0.3535 -6.4395,6.4649 -6.4375,-6.4649 -0.3535,-0.3535 -0.707,0.7051 0.3515,0.3535 7.1465,7.1758 7.1485,-7.1758 0.3535,-0.3535 z"
       id="path5165-9-5-5"
       inkscape:connector-curvature="0" />
    <path
       style="color:#000000;font-style:normal;font-variant:normal;font-weight:normal;font-stretch:normal;font-size:medium;line-height:normal;font-family:sans-serif;text-indent:0;text-align:start;text-decoration:none;text-decoration-line:none;text-decoration-style:solid;text-decoration-color:#000000;letter-spacing:normal;word-spacing:normal;text-transform:none;direction:ltr;block-progression:tb;writing-mode:lr-tb;baseline-shift:baseline;text-anchor:start;white-space:normal;clip-rule:nonzero;display:inline;overflow:visible;visibility:visible;opacity:1;isolation:auto;mix-blend-mode:normal;color-interpolation:sRGB;color-interpolation-filters:linearRGB;solid-color:#000000;solid-opacity:1;fill:#4d4849;fill-opacity:1;fill-rule:evenodd;stroke:none;stroke-width:1;stroke-linecap:square;stroke-linejoin:miter;stroke-miterlimit:4;stroke-dasharray:none;stroke-dashoffset:0;stroke-opacity:1;color-rendering:auto;image-rendering:auto;shape-rendering:auto;text-rendering:auto;enable-background:accumulate"
       d="m 164.291,1121.6571 0.709,0.7051 0.3535,-0.3535 6.4395,-6.4649 6.4375,6.4649 0.3535,0.3535 0.707,-0.7051 -0.3515,-0.3535 -7.1465,-7.1758 -7.1485,7.1758 -0.3535,0.3535 z"
       id="path5165-9-5-5-0"
       inkscape:connector-curvature="0" />
    <path
       style="color:#000000;font-style:normal;font-variant:normal;font-weight:normal;font-stretch:normal;font-size:medium;line-height:normal;font-family:sans-serif;text-indent:0;text-align:start;text-decoration:none;text-decoration-line:none;text-decoration-style:solid;text-decoration-color:#000000;letter-spacing:normal;word-spacing:normal;text-transform:none;direction:ltr;block-progression:tb;writing-mode:lr-tb;baseline-shift:baseline;text-anchor:start;white-space:normal;clip-rule:nonzero;display:inline;overflow:visible;visibility:visible;opacity:1;isolation:auto;mix-blend-mode:normal;color-interpolation:sRGB;color-interpolation-filters:linearRGB;solid-color:#000000;solid-opacity:1;fill:#4d4849;fill-opacity:1;fill-rule:nonzero;stroke:none;stroke-width:1;stroke-linecap:butt;stroke-linejoin:miter;stroke-miterlimit:4;stroke-dasharray:none;stroke-dashoffset:0;stroke-opacity:1;color-rendering:auto;image-rendering:auto;shape-rendering:auto;text-rendering:auto;enable-background:accumulate"
       d="m 96.078125,1087.3602 c -2.437958,0 -4.423828,1.9959 -4.423828,4.4414 0,2.1363 1.08741,3.7602 2.597656,5.2774 1.510246,1.5172 3.462528,2.9868 5.394531,4.9277 l 0.353516,0.3555 0.35352,-0.3555 c 1.932,-1.9409 3.88429,-3.4105 5.39453,-4.9277 1.51024,-1.5172 2.59765,-3.1411 2.59765,-5.2774 0,-2.4305 -1.88628,-4.4414 -4.32422,-4.4414 -2.54809,0 -3.55276,1.5801 -4.01757,2.4981 -0.457876,-0.918 -1.4437,-2.4981 -3.925785,-2.4981 z"
       id="path4254-2-4-0"
       inkscape:connector-curvature="0"
       sodipodi:nodetypes="ssscccssscs" />
    <path
       style="color:#000000;font-style:normal;font-variant:normal;font-weight:normal;font-stretch:normal;font-size:medium;line-height:normal;font-family:sans-serif;text-indent:0;text-align:start;text-decoration:none;text-decoration-line:none;text-decoration-style:solid;text-decoration-color:#000000;letter-spacing:normal;word-spacing:normal;text-transform:none;direction:ltr;block-progression:tb;writing-mode:lr-tb;baseline-shift:baseline;text-anchor:start;white-space:normal;clip-rule:nonzero;display:inline;overflow:visible;visibility:visible;opacity:1;isolation:auto;mix-blend-mode:normal;color-interpolation:sRGB;color-interpolation-filters:linearRGB;solid-color:#000000;solid-opacity:1;fill:#4d4849;fill-opacity:1;fill-rule:evenodd;stroke:none;stroke-width:1px;stroke-linecap:butt;stroke-linejoin:miter;stroke-miterlimit:4;stroke-dasharray:none;stroke-dashoffset:0;stroke-opacity:1;color-rendering:auto;image-rendering:auto;shape-rendering:auto;text-rendering:auto;enable-background:accumulate"
       d="m -28.562199,1107.3888 -9.670034,9.6701 -1.767767,5.3033 5.303301,-1.7678 9.670034,-9.67 -0.707107,-0.7071 -2.12132,-2.1214 z m 0,1.4143 2.121321,2.1213 -1.414214,1.4142 -2.12132,-2.1213 z m -2.12132,2.1213 2.12132,2.1213 -6.050255,6.0503 -2.12132,-2.1214 z m -6.71593,6.7988 2.038456,2.0384 -3.057684,1.0193 z"
       id="path10223"
       inkscape:connector-curvature="0"
       sodipodi:nodetypes="cccccccccccccccccccccc" />
    <path
       style="font-style:normal;font-variant:normal;font-weight:normal;font-stretch:normal;font-size:medium;line-height:125%;font-family:'Playfair Display';-inkscape-font-specification:'Playfair Display, Normal';text-align:start;letter-spacing:0px;word-spacing:0px;writing-mode:lr-tb;text-anchor:start;fill:#4d4849;fill-opacity:1;stroke:none;stroke-width:1px;stroke-linecap:butt;stroke-linejoin:miter;stroke-opacity:1"
       inkscape:connector-curvature="0"
       id="path7121"
       d="m 4.7304688,1047.3622 0,0.5547 c 0.6671173,0.027 1.1497673,0.1 1.4472656,0.2168 0.3065134,0.1172 0.5129125,0.3329 0.6210937,0.6484 0.1171964,0.3155 0.1757813,0.8195 0.1757813,1.5137 l 0,5.6406 c 0,1.2982 0.058585,2.3527 0.1757812,3.1641 0.1171963,0.8114 0.3208918,1.507 0.609375,2.084 0.2974983,0.5679 0.7215633,1.1072 1.2714844,1.6211 1.072797,1.0006 2.621994,1.5019 4.650391,1.5019 1.117873,0 2.12313,-0.2297 3.015625,-0.6894 0.90151,-0.4688 1.587855,-1.1013 2.05664,-1.8946 0.40568,-0.6852 0.693948,-1.5006 0.865235,-2.4472 0.180303,-0.9556 0.269531,-2.0948 0.269531,-3.42 l 0,-5.2753 c 0,-0.7122 0.05393,-1.2488 0.162109,-1.6094 0.117196,-0.3606 0.330206,-0.6182 0.636719,-0.7715 0.315529,-0.1619 0.793522,-0.2562 1.433594,-0.2832 l 0,-0.5547 c -0.604011,0.054 -1.461456,0.08 -2.570313,0.08 -1.217039,0 -2.159055,-0.026 -2.826172,-0.08 l 0,0.5547 c 0.649087,0.027 1.150364,0.1209 1.501953,0.2832 0.360604,0.1623 0.616275,0.4292 0.769532,0.7988 0.162268,0.3696 0.24414,0.897 0.24414,1.5821 l 0,5.5859 c 0,2.2718 -0.396124,4.0339 -1.189453,5.2871 -0.793329,1.253 -2.168723,1.8789 -4.125,1.8789 -1.244084,0 -2.1861,-0.2976 -2.826172,-0.8926 -0.631057,-0.595 -1.045808,-1.3779 -1.2441402,-2.3515 -0.1983324,-0.9737 -0.296875,-2.2013 -0.296875,-3.6797 l 0,-6.1133 c 0,-0.6942 0.053928,-1.1982 0.1621093,-1.5137 0.1171963,-0.3155 0.3235959,-0.5312 0.6210939,-0.6484 0.306513,-0.1173 0.79382,-0.1898 1.460937,-0.2168 l 0,-0.5547 c -0.865449,0.054 -2.0418048,0.08 -3.5292965,0.08 -1.5776425,0 -2.758655,-0.026 -3.5429687,-0.08 z m 0.2695312,19 0,1 17,0 0,-1 -17,0 z" />
    <path
       style="font-style:normal;font-variant:normal;font-weight:normal;font-stretch:normal;font-size:27.82423401px;line-height:125%;font-family:'Playfair Display';-inkscape-font-specification:'Playfair Display, Normal';text-align:start;letter-spacing:0px;word-spacing:0px;writing-mode:lr-tb;text-anchor:start;fill:#4d4849;fill-opacity:1;stroke:none;stroke-width:1px;stroke-linecap:butt;stroke-linejoin:miter;stroke-opacity:1"
       d="m -9.5859375,-90.000017 c -0.9510225,0 -1.8240455,0.180668 -2.6210935,0.542969 -0.787991,0.353299 -1.422303,0.892587 -1.902344,1.617187 -0.470983,0.7246 -0.707031,1.611509 -0.707031,2.662109 0,0.9025 0.187222,1.694166 0.542968,2.384766 l 3.636719,0 c -0.422533,-0.3196 -0.82321,-0.651919 -1.177734,-1.011719 -0.606844,-0.6159 -0.910156,-1.42624 -0.910156,-2.43164 0,-0.634 0.145711,-1.196447 0.435547,-1.685547 0.289835,-0.4891 0.692714,-0.868925 1.208984,-1.140625 0.51627,-0.2717 1.099823,-0.408203 1.751953,-0.408203 0.978196,0 1.7951346,0.254518 2.4472656,0.761718 0.661187,0.4981 1.1590187,1.148978 1.4941406,1.955078 0.34418,0.806101 0.552541,1.685719 0.625,2.636719 l 0.6386719,0 c 0,-2.6991 0.044192,-4.592787 0.1347657,-5.679687 l -0.6386719,0 c -0.054344,0.4257 -0.1262229,0.7382 -0.2167969,0.9375 -0.090574,0.1902 -0.2224412,0.285156 -0.3945312,0.285156 -0.217377,0 -0.5345329,-0.131831 -0.9511719,-0.394531 -0.326065,-0.2174 -0.6247624,-0.393397 -0.8964844,-0.529297 -0.271721,-0.1449 -0.614611,-0.262916 -1.03125,-0.353516 -0.407581,-0.1 -0.898135,-0.148437 -1.46875,-0.148437 z M -16,-81 l 0,1 14,0 0,-1 z m 7.9023438,2.800781 c 0.2167526,0.1537 0.4504175,0.312878 0.6308593,0.455078 0.5977863,0.471 1.0698825,0.9919 1.4140625,1.5625 0.3532374,0.5615 0.5292969,1.200516 0.5292969,1.916016 0,0.8333 -0.171445,1.530197 -0.515625,2.091797 -0.3351226,0.5525 -0.7795317,0.960056 -1.3320313,1.222656 -0.5434419,0.2627 -1.1316092,0.394531 -1.765625,0.394531 -1.6574982,0 -2.8845922,-0.580834 -3.6816402,-1.740234 -0.797049,-1.1684 -1.259916,-2.694125 -1.386719,-4.578125 l -0.638672,0 c 0,3.4328 -0.03496,5.655522 -0.107422,6.669922 l 0.638672,0 c 0.05434,-0.4257 0.126223,-0.733628 0.216797,-0.923829 0.09057,-0.1992 0.222441,-0.298828 0.394531,-0.298828 0.217377,0 0.534533,0.131932 0.951172,0.394532 0.507213,0.317 1.04462,0.566847 1.615234,0.748046 0.570615,0.190201 1.2998783,0.285157 2.1875004,0.285157 1.1049989,0 2.1026123,-0.199156 2.9902344,-0.597657 0.8966794,-0.398599 1.6074852,-0.993249 2.1328124,-1.78125 0.5253275,-0.797 0.7871094,-1.76505 0.7871094,-2.90625 0,-0.942 -0.2037465,-1.766156 -0.6113281,-2.472656 -0.086644,-0.1521 -0.1823262,-0.297506 -0.28125,-0.441406 z"
       transform="translate(0,1137.3622)"
       id="text7125"
       inkscape:connector-curvature="0"
       sodipodi:nodetypes="sccscccsssscccccccscccsccccccccsccsccccccsccsccsccc" />
    <path
       style="color:#000000;font-style:normal;font-variant:normal;font-weight:normal;font-stretch:normal;font-size:medium;line-height:normal;font-family:sans-serif;text-indent:0;text-align:start;text-decoration:none;text-decoration-line:none;text-decoration-style:solid;text-decoration-color:#000000;letter-spacing:normal;word-spacing:normal;text-transform:none;direction:ltr;block-progression:tb;writing-mode:lr-tb;baseline-shift:baseline;text-anchor:start;white-space:normal;clip-rule:nonzero;display:inline;overflow:visible;visibility:visible;opacity:1;isolation:auto;mix-blend-mode:normal;color-interpolation:sRGB;color-interpolation-filters:linearRGB;solid-color:#000000;solid-opacity:1;fill:#4d4849;fill-opacity:1;fill-rule:evenodd;stroke:none;stroke-width:0.99999994px;stroke-linecap:butt;stroke-linejoin:miter;stroke-miterlimit:4;stroke-dasharray:none;stroke-dashoffset:0;stroke-opacity:1;color-rendering:auto;image-rendering:auto;shape-rendering:auto;text-rendering:auto;enable-background:accumulate"
       d="m -72.5,1091.6493 -7.5,10.7129 0.960938,0 14.039062,0 -7.5,-10.7129 z m 0,1.7422 5.580079,7.9707 -11.158204,0 5.578125,-7.9707 z"
       id="path4883"
       inkscape:connector-curvature="0" />
    <path
       style="color:#000000;font-style:normal;font-variant:normal;font-weight:normal;font-stretch:normal;font-size:medium;line-height:normal;font-family:sans-serif;text-indent:0;text-align:start;text-decoration:none;text-decoration-line:none;text-decoration-style:solid;text-decoration-color:#000000;letter-spacing:normal;word-spacing:normal;text-transform:none;direction:ltr;block-progression:tb;writing-mode:lr-tb;baseline-shift:baseline;text-anchor:start;white-space:normal;clip-rule:nonzero;display:inline;overflow:visible;visibility:visible;opacity:1;isolation:auto;mix-blend-mode:normal;color-interpolation:sRGB;color-interpolation-filters:linearRGB;solid-color:#000000;solid-opacity:1;fill:#4d4849;fill-opacity:1;fill-rule:evenodd;stroke:none;stroke-width:1px;stroke-linecap:butt;stroke-linejoin:miter;stroke-miterlimit:4;stroke-dasharray:none;stroke-dashoffset:0;stroke-opacity:1;color-rendering:auto;image-rendering:auto;shape-rendering:auto;text-rendering:auto;enable-background:accumulate"
       d="M 63.837891,1112.1102 55,1120.9481 l -3.181641,-3.1816 -0.707031,0.707 3.888672,3.8887 9.544922,-9.5449 -0.707031,-0.7071 z"
       id="path27966"
       inkscape:connector-curvature="0" />
    <path
       style="color:#000000;font-style:normal;font-variant:normal;font-weight:normal;font-stretch:normal;font-size:medium;line-height:normal;font-family:sans-serif;text-indent:0;text-align:start;text-decoration:none;text-decoration-line:none;text-decoration-style:solid;text-decoration-color:#000000;letter-spacing:normal;word-spacing:normal;text-transform:none;direction:ltr;block-progression:tb;writing-mode:lr-tb;baseline-shift:baseline;text-anchor:start;white-space:normal;clip-rule:nonzero;display:inline;overflow:visible;visibility:visible;opacity:1;isolation:auto;mix-blend-mode:normal;color-interpolation:sRGB;color-interpolation-filters:linearRGB;solid-color:#000000;solid-opacity:1;fill:#4d4849;fill-opacity:1;fill-rule:nonzero;stroke:none;stroke-width:1.02999997;stroke-linecap:round;stroke-linejoin:miter;stroke-miterlimit:4;stroke-dasharray:none;stroke-dashoffset:0;stroke-opacity:1;color-rendering:auto;image-rendering:auto;shape-rendering:auto;text-rendering:auto;enable-background:accumulate"
       d="m -60,1107.3622 0,0.5136 -0.03125,10.5157 6.03125,-0.029 4,4 0,-3.9707 4,0 0.03125,-11.0293 z m 1.03125,1.0293 11.96875,0 -0.03125,8.9707 -4,0 0,2.5136 -2.542968,-2.5429 -5.425782,0.029 z"
       id="rect7165-0"
       inkscape:connector-curvature="0"
       sodipodi:nodetypes="ccccccccccccccccc" />
    <path
       style="color:#000000;font-style:normal;font-variant:normal;font-weight:normal;font-stretch:normal;font-size:medium;line-height:normal;font-family:sans-serif;text-indent:0;text-align:start;text-decoration:none;text-decoration-line:none;text-decoration-style:solid;text-decoration-color:#000000;letter-spacing:normal;word-spacing:normal;text-transform:none;direction:ltr;block-progression:tb;writing-mode:lr-tb;baseline-shift:baseline;text-anchor:start;white-space:normal;clip-rule:nonzero;display:inline;overflow:visible;visibility:visible;opacity:1;isolation:auto;mix-blend-mode:normal;color-interpolation:sRGB;color-interpolation-filters:linearRGB;solid-color:#000000;solid-opacity:1;fill:#4d4849;fill-opacity:1;fill-rule:nonzero;stroke:none;stroke-width:1.02999997;stroke-linecap:round;stroke-linejoin:miter;stroke-miterlimit:4;stroke-dasharray:none;stroke-dashoffset:0;stroke-opacity:1;color-rendering:auto;image-rendering:auto;shape-rendering:auto;text-rendering:auto;enable-background:accumulate"
       d="m -80,1107.3619 0,0.5136 -0.03125,10.5157 6.03125,-0.029 4,4 0,-3.9707 4,0 0.03125,-11.0293 z"
       id="rect7165-0-3"
       inkscape:connector-curvature="0"
       sodipodi:nodetypes="ccccccccc" />
    <path
       style="opacity:1;fill:#4d4849;fill-opacity:1;fill-rule:nonzero;stroke:none;stroke-width:1;stroke-linecap:square;stroke-linejoin:miter;stroke-miterlimit:4.5;stroke-dasharray:none;stroke-opacity:1"
       d="M -20 -30 L -20 -29.5 L -20 -15 L -8 -15 L -8 -30 L -20 -30 z M -19 -29 L -9 -29 L -9 -16 L -19 -16 L -19 -29 z M -17 -27 L -17 -26 L -11 -26 L -11 -27 L -17 -27 z M -17 -25 L -17 -24 L -11 -24 L -11 -25 L -17 -25 z M -17 -23 L -17 -22 L -13 -22 L -13 -23 L -17 -23 z M -17 -21 L -17 -20 L -12 -20 L -12 -21 L -17 -21 z M -17 -19 L -17 -18 L -14 -18 L -14 -19 L -17 -19 z "
       transform="translate(0,1137.3622)"
       id="rect4893-4-0-9" />
    <path
       style="opacity:1;fill:#4d4849;fill-opacity:1;fill-rule:nonzero;stroke:none;stroke-width:1;stroke-linecap:square;stroke-linejoin:miter;stroke-miterlimit:4.5;stroke-dasharray:none;stroke-opacity:1"
       d="m -99,1092.8622 0,10 1,0 13,0 0,-1 0,-9 -13,0 -1,0 z m 1,1 12,0 0,1.3809 -6,3.4648 -6,-3.4648 0,-1.3809 z m 0,2.5352 6,3.4648 6,-3.4648 0,5.4648 -12,0 0,-5.4648 z"
       id="rect4254"
       inkscape:connector-curvature="0" />
    <path
       style="opacity:1;fill:#4d4849;fill-opacity:1;fill-rule:nonzero;stroke:none;stroke-width:1;stroke-linecap:square;stroke-linejoin:miter;stroke-miterlimit:4.5;stroke-dasharray:none;stroke-opacity:1"
       d="m -110,1087.3622 c -2.20914,0 -4,1.7909 -4,4 l 0,3 -1,0 0,8 1,0 8,0 1,0 0,-8 -1,0 -7,0 0,-3 c 0,-1.6569 1.34315,-3 3,-3 1.65685,0 3,1.3431 3,3 l 1,0 c 0,-2.2091 -1.79086,-4 -4,-4 z m -4,8 8,0 0,6 -8,0 z"
       id="rect4389"
       inkscape:connector-curvature="0"
       sodipodi:nodetypes="sscccccccccssccsccccc" />
    <path
       inkscape:connector-curvature="0"
       id="rect5654"
       style="fill:#4d4849;fill-opacity:1"
       d="m -113,1133.3622 28,0 0,1 -28,0 z m 0,-13 28,0 0,1 -28,0 z m 0,-13 28,0 0,1 -28,0 z" />
    <path
       style="fill:#4d4849;fill-opacity:1;fill-rule:evenodd;stroke:none;stroke-width:1px;stroke-linecap:butt;stroke-linejoin:miter;stroke-opacity:1"
       d="m -128,1087.3622 0,1 c 0,3.6435 1.4538,5.2101 3.03516,6.5 -1.58136,1.2899 -3.03516,2.8565 -3.03516,6.5 l 0,1 8,0 0,-1 c 0,-3.6435 -1.4538,-5.2101 -3.03516,-6.5 1.58136,-1.2899 3.03516,-2.8565 3.03516,-6.5 l 0,-1 -8,0 z m 1,1 6,0 c 0,1.2557 -0.23186,2.2138 -0.60156,3 l -4.79688,0 c -0.3697,-0.7862 -0.60156,-1.7443 -0.60156,-3 z m 3,7.2813 c 1.5649,1.2396 3,2.559 3,5.7187 l -6,0 c 0,-3.1597 1.4351,-4.4791 3,-5.7187 z"
       id="path4295"
       inkscape:connector-curvature="0" />
    <path
       style="fill:#4d4849;fill-opacity:1;stroke:none;stroke-width:1;stroke-miterlimit:4;stroke-dasharray:none;stroke-opacity:1"
       d="M -140 -30 A 10 10 0 0 0 -150 -20 A 10 10 0 0 0 -140 -10 A 10 10 0 0 0 -133.29883 -12.591797 L -123.35352 -2.6464844 L -122.64648 -3.3535156 L -132.5918 -13.298828 A 10 10 0 0 0 -130 -20 A 10 10 0 0 0 -140 -30 z M -140 -29 A 9 9 0 0 1 -131 -20 A 9 9 0 0 1 -140 -11 A 9 9 0 0 1 -149 -20 A 9 9 0 0 1 -140 -29 z "
       transform="translate(0,1137.3622)"
       id="rect4304" />
  </g>
</svg>
