<?xml version="1.0" encoding="UTF-8" standalone="no"?>
<!-- Created with Inkscape (http://www.inkscape.org/) -->

<svg
   xmlns:dc="http://purl.org/dc/elements/1.1/"
   xmlns:cc="http://creativecommons.org/ns#"
   xmlns:rdf="http://www.w3.org/1999/02/22-rdf-syntax-ns#"
   xmlns:svg="http://www.w3.org/2000/svg"
   xmlns="http://www.w3.org/2000/svg"
   xmlns:sodipodi="http://sodipodi.sourceforge.net/DTD/sodipodi-0.dtd"
   xmlns:inkscape="http://www.inkscape.org/namespaces/inkscape"
   width="100"
   height="100"
   viewBox="0 0 99.999997 99.999997"
   id="svg23030"
   version="1.1"
   inkscape:version="0.91 r13725"
   sodipodi:docname="logo.svg">
  <defs
     id="defs23032" />
  <sodipodi:namedview
     id="base"
     pagecolor="#ffffff"
     bordercolor="#666666"
     borderopacity="1.0"
     inkscape:pageopacity="0.0"
     inkscape:pageshadow="2"
     inkscape:zoom="2.8"
     inkscape:cx="-19.346044"
     inkscape:cy="40.610077"
     inkscape:document-units="px"
     inkscape:current-layer="layer1"
     showgrid="false"
     units="px"
     inkscape:window-width="1855"
     inkscape:window-height="1056"
     inkscape:window-x="65"
     inkscape:window-y="24"
     inkscape:window-maximized="1" />
  <metadata
     id="metadata23035">
    <rdf:RDF>
      <cc:Work
         rdf:about="">
        <dc:format>image/svg+xml</dc:format>
        <dc:type
           rdf:resource="http://purl.org/dc/dcmitype/StillImage" />
        <dc:title />
      </cc:Work>
    </rdf:RDF>
  </metadata>
  <g
     inkscape:label="Layer 1"
     inkscape:groupmode="layer"
     id="layer1"
     transform="translate(0,-952.36224)">
    <path
       d="m 99.275081,964.64139 c -2.32014,2.11653 -21.79001,21.2902 -26.11033,25.73442 -4.32055,4.443 -4.47967,5.27851 -6.37761,5.22561 -1.89709,-0.0537 -3.82713,-1.85024 -9.39635,2.44595 -3.01803,2.32743 -9.06241,7.56743 -15.63422,15.73863 -6.57124,8.1705 -11.70517,15.1444 -14.90964,19.6796 -3.20449,4.5368 -8.89303,12.6493 -12.35721,15.7584 -3.46345,3.1083 -5.1522698,3.908 -7.3714898,2.3974 0,0 -0.8488,0.1842 -1.49073,0.092 -0.64118,-0.092 -1.88468,0.086 -3.30572,-1.5127 -1.42102998,-1.5986 -1.20901,-2.6 -1.24349,-3.5529 -0.036,-0.953 -0.93465998,-1.0932 -0.73436998,-1.8789 0,0 -0.77544,-2.8296 1.97785998,-5.5829 2.7533,-2.7533 16.7861198,-12.6998 29.9312398,-23.713 13.14579,-11.0138 21.22914,-17.84768 24.53432,-25.95876 0.94822,-2.32804 -0.086,-4.22434 -0.087,-4.91396 8.4e-4,-0.69036 -0.0852,-0.9486 1.12101,-2.32715 1.20653,-1.37881 22.87166,-22.01015 24.75259,-23.7202 1.88242,-1.70868 4.99635,-5.16722 5.67523,-5.8461 0.66642,-0.66642 0.81587,-0.21495 1.1208,0.0867 0.30439,0.30081 -0.34822,0.89219 -2.38365,2.83221 -2.03596,1.94061 -18.13219,18.71744 -20.02793,20.78546 -1.89658,2.0689 -2.84437,2.32749 -1.12044,4.56931 0,0 16.93854,-16.31058 20.42854,-19.74078 3.4913,-3.42721 4.56903,-4.39529 5.25851,-5.08477 0.69,-0.68999 1.18062,-0.0258 1.46542,0.25902 0.28407,0.28407 0.43287,0.38163 -1.76999,2.24275 -2.20197,1.8602 -14.69395,14.56579 -18.14167,18.3581 -3.44821,3.79281 -5.5431,4.74565 -5.0726,5.60659 0.47176,0.86108 1.62467,1.46107 1.62467,1.46107 0,0 21.0316,-20.34241 23.44545,-22.75624 2.4132,-2.41321 2.75901,-1.89609 3.10433,-1.55078 0.34388,0.34388 0.59444,0.0449 -1.9136,2.55296 -2.50811,2.50812 -19.37846,19.25457 -20.84358,21.06572 -1.46625,1.80944 -2.7353,2.3793 -1.06634,4.07661 0,0 13.39301,-12.78355 16.23704,-15.45528 2.8448,-2.6725 7.84401,-6.9825 8.87865,-8.18946 1.03382,-1.2061 1.72315,-0.86165 2.15461,-0.43019 0.430759,0.43076 -0.35228,1.24513 -0.35228,1.24513"
       style="fill:#4f4648;fill-opacity:1;fill-rule:evenodd;stroke:none"
       id="path52"
       inkscape:connector-curvature="0"
       sodipodi:nodetypes="ccccsccccsccssccccscscccsscsccsssccscsc" />
    <path
       d="m 2.0812012,952.83848 c -1.10869998,1.02655 -2.05810998,4.38713 3.57316,13.2149 5.6326698,8.82789 14.0462498,19.13338 20.1667298,24.7328 6.121,5.59992 17.42716,16.36212 18.87406,18.11222 1.44601,1.7505 2.98152,3.5726 2.98152,3.5726 l 3.71489,-0.072 c 0,0 0.75103,1.3435 1.78298,0.481 0,0 0.17199,0.7605 1.10966,-0.1771 0.22805,-0.2281 0.68479,-0.076 0.45674,0.4567 -0.22996,0.5332 -0.2943,0.8421 0.53127,0.837 0.82746,-0 1.39313,-0.022 1.44727,1.1415 0.0529,1.1639 0.33762,1.9977 1.68998,2.9768 1.35364,0.9816 1.80591,1.4288 1.95943,2.1938 0.15544,0.7657 0.93641,0.4103 0.93641,0.4103 0,0 17.12209,18.4521 20.00455,21.4658 3.05699,3.1971 8.58303,9.8698 12.24263,10.1673 2.11167,0.1713 4.33737,-1.9779 4.86991,-3.2723 0.53318,-1.2938 0.76059,-3.6526 -1.82629,-6.5453 -2.58689,-2.8913 -29.00292,-27.8703 -29.00292,-27.8703 0,0 0.10894,-0.5599 -0.70198,-0.9937 -0.81218,-0.4338 -1.40459,-1.053 -1.72565,-1.6671 -0.32168,-0.6134 -1.29376,-1.7358 -1.90209,-1.7352 -0.60835,-6e-4 -1.81166,-0.048 -2.39642,-0.5159 -0.58478,-0.4689 -0.11531,-1.2352 -0.79945,-1.1588 -0.68478,0.076 -0.96953,-0.614 -0.75103,-0.8019 0.21785,-0.1873 0.26754,-1.139 -0.17517,-1.462 0,0 0.24142,-1.0084 -0.82474,-1.9216 -1.06495,-0.9134 -10.32709,-10.00352 -11.51727,-11.35678 -1.19152,-1.35204 -2.87411,-2.42311 -7.95526,-6.37548 -5.18396,-4.03225 -15.51353,-13.79616 -18.57798,-17.42626 -3.06381,-3.63076 -7.91557,-8.82777 -10.5779398,-11.79591 -2.66294,-2.9687 -4.03251,-4.33827 -5.09879,-4.79429 -1.0654,-0.45642 -1.90312,-0.38068 -2.50821,0.17867"
       style="fill:#4f4648;fill-opacity:1;fill-rule:evenodd;stroke:none"
       id="path56"
       inkscape:connector-curvature="0"
       sodipodi:nodetypes="ccsccccsccccccccccccccccccccccccc" />
  </g>
</svg>
