<?xml version="1.0" encoding="UTF-8" standalone="no"?>
<!-- Created with Inkscape (http://www.inkscape.org/) -->

<svg
   xmlns:dc="http://purl.org/dc/elements/1.1/"
   xmlns:cc="http://creativecommons.org/ns#"
   xmlns:rdf="http://www.w3.org/1999/02/22-rdf-syntax-ns#"
   xmlns:svg="http://www.w3.org/2000/svg"
   xmlns="http://www.w3.org/2000/svg"
   xmlns:sodipodi="http://sodipodi.sourceforge.net/DTD/sodipodi-0.dtd"
   xmlns:inkscape="http://www.inkscape.org/namespaces/inkscape"
   width="367.69199"
   height="193.68401"
   viewBox="0 0 367.69198 193.684"
   id="svg23030"
   version="1.1"
   inkscape:version="0.91 r13725"
   sodipodi:docname="nomnoms-logo-proper.svg">
  <defs
     id="defs23032" />
  <sodipodi:namedview
     id="base"
     pagecolor="#ffffff"
     bordercolor="#666666"
     borderopacity="1.0"
     inkscape:pageopacity="0.0"
     inkscape:pageshadow="2"
     inkscape:zoom="1.4"
     inkscape:cx="186.74831"
     inkscape:cy="85.485798"
     inkscape:document-units="px"
     inkscape:current-layer="layer1"
     showgrid="false"
     units="px"
     inkscape:window-width="1855"
     inkscape:window-height="1056"
     inkscape:window-x="65"
     inkscape:window-y="24"
     inkscape:window-maximized="1" />
  <metadata
     id="metadata23035">
    <rdf:RDF>
      <cc:Work
         rdf:about="">
        <dc:format>image/svg+xml</dc:format>
        <dc:type
           rdf:resource="http://purl.org/dc/dcmitype/StillImage" />
        <dc:title />
      </cc:Work>
    </rdf:RDF>
  </metadata>
  <g
     inkscape:label="Layer 1"
     inkscape:groupmode="layer"
     id="layer1"
     transform="translate(0,-858.67824)">
    <g
       id="g4201"
       transform="translate(133.846,-93.683308)">
      <path
         sodipodi:nodetypes="ccccsccccsccssccccscscccsscsccsssccscsc"
         inkscape:connector-curvature="0"
         id="path52"
         style="fill:#4f4648;fill-opacity:1;fill-rule:evenodd;stroke:none"
         d="m 99.275081,964.64139 c -2.32014,2.11653 -21.79001,21.2902 -26.11033,25.73442 -4.32055,4.443 -4.47967,5.27851 -6.37761,5.22561 -1.89709,-0.0537 -3.82713,-1.85024 -9.39635,2.44595 -3.01803,2.32743 -9.06241,7.56743 -15.63422,15.73863 -6.57124,8.1705 -11.70517,15.1444 -14.90964,19.6796 -3.20449,4.5368 -8.89303,12.6493 -12.35721,15.7584 -3.46345,3.1083 -5.1522698,3.908 -7.3714898,2.3974 0,0 -0.8488,0.1842 -1.49073,0.092 -0.64118,-0.092 -1.88468,0.086 -3.30572,-1.5127 -1.42102998,-1.5986 -1.20901,-2.6 -1.24349,-3.5529 -0.036,-0.953 -0.93465998,-1.0932 -0.73436998,-1.8789 0,0 -0.77544,-2.8296 1.97785998,-5.5829 2.7533,-2.7533 16.7861198,-12.6998 29.9312398,-23.713 13.14579,-11.0138 21.22914,-17.84768 24.53432,-25.95876 0.94822,-2.32804 -0.086,-4.22434 -0.087,-4.91396 8.4e-4,-0.69036 -0.0852,-0.9486 1.12101,-2.32715 1.20653,-1.37881 22.87166,-22.01015 24.75259,-23.7202 1.88242,-1.70868 4.99635,-5.16722 5.67523,-5.8461 0.66642,-0.66642 0.81587,-0.21495 1.1208,0.0867 0.30439,0.30081 -0.34822,0.89219 -2.38365,2.83221 -2.03596,1.94061 -18.13219,18.71744 -20.02793,20.78546 -1.89658,2.0689 -2.84437,2.32749 -1.12044,4.56931 0,0 16.93854,-16.31058 20.42854,-19.74078 3.4913,-3.42721 4.56903,-4.39529 5.25851,-5.08477 0.69,-0.68999 1.18062,-0.0258 1.46542,0.25902 0.28407,0.28407 0.43287,0.38163 -1.76999,2.24275 -2.20197,1.8602 -14.69395,14.56579 -18.14167,18.3581 -3.44821,3.79281 -5.5431,4.74565 -5.0726,5.60659 0.47176,0.86108 1.62467,1.46107 1.62467,1.46107 0,0 21.0316,-20.34241 23.44545,-22.75624 2.4132,-2.41321 2.75901,-1.89609 3.10433,-1.55078 0.34388,0.34388 0.59444,0.0449 -1.9136,2.55296 -2.50811,2.50812 -19.37846,19.25457 -20.84358,21.06572 -1.46625,1.80944 -2.7353,2.3793 -1.06634,4.07661 0,0 13.39301,-12.78355 16.23704,-15.45528 2.8448,-2.6725 7.84401,-6.9825 8.87865,-8.18946 1.03382,-1.2061 1.72315,-0.86165 2.15461,-0.43019 0.430759,0.43076 -0.35228,1.24513 -0.35228,1.24513" />
      <path
         sodipodi:nodetypes="ccsccccsccccccccccccccccccccccccc"
         inkscape:connector-curvature="0"
         id="path56"
         style="fill:#4f4648;fill-opacity:1;fill-rule:evenodd;stroke:none"
         d="m 2.0812012,952.83848 c -1.10869998,1.02655 -2.05810998,4.38713 3.57316,13.2149 5.6326698,8.82789 14.0462498,19.13338 20.1667298,24.7328 6.121,5.59992 17.42716,16.36212 18.87406,18.11222 1.44601,1.7505 2.98152,3.5726 2.98152,3.5726 l 3.71489,-0.072 c 0,0 0.75103,1.3435 1.78298,0.481 0,0 0.17199,0.7605 1.10966,-0.1771 0.22805,-0.2281 0.68479,-0.076 0.45674,0.4567 -0.22996,0.5332 -0.2943,0.8421 0.53127,0.837 0.82746,0 1.39313,-0.022 1.44727,1.1415 0.0529,1.1639 0.33762,1.9977 1.68998,2.9768 1.35364,0.9816 1.80591,1.4288 1.95943,2.1938 0.15544,0.7657 0.93641,0.4103 0.93641,0.4103 0,0 17.12209,18.4521 20.00455,21.4658 3.05699,3.1971 8.58303,9.8698 12.24263,10.1673 2.11167,0.1713 4.33737,-1.9779 4.86991,-3.2723 0.53318,-1.2938 0.76059,-3.6526 -1.82629,-6.5453 -2.58689,-2.8913 -29.00292,-27.8703 -29.00292,-27.8703 0,0 0.10894,-0.5599 -0.70198,-0.9937 -0.81218,-0.4338 -1.40459,-1.053 -1.72565,-1.6671 -0.32168,-0.6134 -1.29376,-1.7358 -1.90209,-1.7352 -0.60835,-6e-4 -1.81166,-0.048 -2.39642,-0.5159 -0.58478,-0.4689 -0.11531,-1.2352 -0.79945,-1.1588 -0.68478,0.076 -0.96953,-0.614 -0.75103,-0.8019 0.21785,-0.1873 0.26754,-1.139 -0.17517,-1.462 0,0 0.24142,-1.0084 -0.82474,-1.9216 -1.06495,-0.9134 -10.32709,-10.00352 -11.51727,-11.35678 -1.19152,-1.35204 -2.87411,-2.42311 -7.95526,-6.37548 -5.18396,-4.03225 -15.51353,-13.79616 -18.57798,-17.42626 -3.06381,-3.63076 -7.91557,-8.82777 -10.5779398,-11.79591 -2.66294,-2.9687 -4.03251,-4.33827 -5.09879,-4.79429 -1.0654,-0.45642 -1.90312,-0.38068 -2.50821,0.17867" />
    </g>
    <path
       inkscape:connector-curvature="0"
       d="m 40.123328,1012.9286 q 0,1.4083 -0.45986,3.2191 -0.43113,1.782 -1.14967,3.8514 -0.6898,2.0406 -1.60953,4.3112 -0.91974,2.2419 -1.89695,4.5987 -0.94848,2.328 -1.86821,4.6849 -0.91974,2.328 -1.63828,4.5986 -0.6898,2.2419 -1.14966,4.34 -0.43113,2.0982 -0.43113,3.9089 0,2.0406 1.0347,3.2765 1.0347,1.2359 3.33404,1.2359 1.89695,0 3.65019,-0.891 1.75324,-0.891 3.47774,-2.6442 1.75324,-1.782 3.53522,-4.4262 1.81073,-2.6442 3.7939,-6.1507 l 1.49457,-2.6443 0.77602,0.5461 -1.49456,2.6443 q -2.15563,3.8226 -4.08132,6.6393 -1.92569,2.8167 -3.82264,4.6849 -1.86821,1.8394 -3.85138,2.7304 -1.95444,0.9198 -4.19629,0.9198 -2.15562,0 -3.65019,-0.4886 -1.49456,-0.4887 -2.44304,-1.3796 -0.94847,-0.9198 -1.3796,-2.1844 -0.40238,-1.2934 -0.40238,-2.8742 0,-1.3796 0.43112,-3.3053 0.45987,-1.9257 1.20715,-4.1675 0.74729,-2.2706 1.66702,-4.7711 0.94847,-2.5005 1.92569,-5.0298 1.00596,-2.558 1.92569,-5.0298 0.94848,-2.5005 1.69576,-4.7136 0.74728,-2.2131 1.17841,-4.0526 0.45987,-1.8395 0.45987,-3.1328 0,-2.4431 -1.26464,-3.7939 -1.23589,-1.3509 -3.21907,-1.3509 -1.72449,0 -3.47774,0.9772 -1.7245,0.9772 -3.50648,2.8454 -1.75324,1.8395 -3.59271,4.5412 -1.81072,2.673 -3.73641,6.0645 l -1.43708,2.5293 -10.26078,28.2243 -4.25376,0 11.32421,-31.2135 q 0.25868,-0.6323 0.60358,-1.7819 0.37364,-1.1497 0.6898,-2.5006 0.3449,-1.3796 0.57483,-2.8454 0.25868,-1.4946 0.25868,-2.7879 0,-0.8623 -0.14371,-1.6096 -0.11497,-0.7472 -0.43113,-1.2646 -0.31616,-0.5461 -0.83351,-0.8622 -0.4886,-0.3162 -1.23589,-0.3162 -1.26463,0 -2.67297,0.8335 -1.3796,0.8048 -2.84543,2.5005 -1.46582,1.6958 -2.98913,4.3113 -1.49456,2.5867 -2.96038996,6.1219 L -2.1958008e-5,1019.338 Q 1.580768,1015.4291 3.190298,1012.6987 q 1.63827,-2.7305 3.27655,-4.4262 1.66702,-1.7245 3.30529,-2.5006 1.66702,-0.776 3.30529,-0.776 1.58079,0 2.61549,0.6036 1.06344,0.6036 1.66702,1.667 0.60357,1.0347 0.83351,2.443 0.25867,1.3796 0.25867,2.9604 0,1.0922 -0.20119,2.5293 -0.20119,1.4371 -0.63232,3.0179 1.89695,-3.2191 3.67893,-5.6909 1.78199,-2.4718 3.56397,-4.1388 1.78198,-1.6957 3.62145,-2.5292 1.83947,-0.8623 3.85138,-0.8623 1.5808,0 2.98914,0.5174 1.43708,0.5173 2.50052,1.5233 1.06344,0.9772 1.66702,2.4718 0.63231,1.4945 0.63231,3.4202 z"
       id="path4139-1"
       style="fill:#4f4648;fill-opacity:1" />
    <path
       inkscape:connector-curvature="0"
       d="m 53.057078,1029.1389 q 0.89099,-3.4777 2.32807,-6.6106 1.46583,-3.1328 3.33403,-5.8058 1.86821,-2.7017 4.11006,-4.8573 2.24185,-2.1557 4.71363,-3.679 2.47179,-1.552 5.11602,-2.3568 2.64423,-0.8335 5.34595,-0.8335 5.43217,0 8.30634,3.3628 2.87416,3.3628 2.87416,9.7434 0,2.7305 -0.54609,5.7483 -0.51735,3.0179 -1.52331,6.0645 -1.09218,3.2478 -2.64423,6.1795 -1.52331,2.9316 -3.39152,5.4322 -1.8682,2.4717 -3.99509,4.4837 -2.12688,2.0119 -4.42621,3.4202 -2.29933,1.4084 -4.68489,2.1556 -2.38556,0.7761 -4.74238,0.7761 -2.67297,0 -4.77111,-0.9773 -2.09814,-0.9772 -3.56397,-2.8166 -1.46582,-1.8682 -2.24185,-4.5412 -0.74728,-2.7017 -0.74728,-6.0932 0,-2.0982 0.28742,-4.3113 0.28741,-2.2418 0.86225,-4.4837 z m 10.60567,21.8149 q 2.84542,0 5.80581,-1.6383 2.98914,-1.6382 5.74834,-4.5699 2.78794,-2.9316 5.17349,-6.9555 2.4143,-4.0525 4.1388,-8.8811 1.23589,-3.4778 1.89695,-6.8118 0.6898,-3.3628 0.6898,-6.0645 0,-2.3281 -0.54609,-4.1675 -0.51735,-1.8682 -1.55205,-3.1329 -1.00596,-1.2933 -2.47178,-1.9544 -1.46583,-0.6898 -3.30529,-0.6898 -1.98318,0 -4.02383,0.776 -2.04066,0.776 -4.05258,2.2131 -1.98317,1.4084 -3.88012,3.449 -1.86821,2.0119 -3.53523,4.5412 -1.66701,2.5005 -3.07535,5.4322 -1.40834,2.9316 -2.44304,6.1507 -0.97722,3.1328 -1.49457,6.1795 -0.51735,3.0178 -0.51735,5.6621 0,5.116 1.89695,7.7889 1.89695,2.673 5.54714,2.673 z"
       id="path4141-2"
       style="fill:#4f4648;fill-opacity:1" />
    <path
       inkscape:connector-curvature="0"
       d="m 109.56317,1020.0565 q 0.25868,-0.6323 0.60358,-1.7819 0.37364,-1.1497 0.6898,-2.5006 0.3449,-1.3796 0.57483,-2.8454 0.25868,-1.4946 0.25868,-2.7879 0,-0.8623 -0.14371,-1.6096 -0.11497,-0.7472 -0.43113,-1.2646 -0.31615,-0.5461 -0.8335,-0.8622 -0.48861,-0.3162 -1.2359,-0.3162 -1.26463,0 -2.67297,0.8335 -1.3796,0.8048 -2.84542,2.5005 -1.46583,1.6958 -2.98914,4.3113 -1.494562,2.5867 -2.960382,6.1219 l -0.77603,-0.5173 q 1.58079,-3.9089 3.19033,-6.6393 1.638272,-2.7305 3.276542,-4.4262 1.66702,-1.7245 3.30529,-2.5006 1.66702,-0.776 3.30529,-0.776 1.58079,0 2.61549,0.6036 1.06345,0.6036 1.66702,1.667 0.60357,1.0347 0.83351,2.443 0.25867,1.3796 0.25867,2.9604 0,0.8335 -0.11496,1.8682 -0.11497,1.006 -0.3449,2.0982 1.66701,-2.8454 3.16158,-5.0298 1.52331,-2.1844 3.01787,-3.6502 1.49457,-1.4658 3.01788,-2.2131 1.55205,-0.7473 3.30529,-0.7473 1.58079,0 2.98913,0.5174 1.43708,0.5173 2.50052,1.5233 1.06345,0.9772 1.66702,2.4718 0.63232,1.4945 0.63232,3.4202 0,0.9485 -0.14371,1.8395 -0.14371,0.891 -0.43113,1.8107 1.66702,-2.8454 3.16159,-5.001 1.5233,-2.1844 2.98913,-3.6215 1.49457,-1.4658 3.01787,-2.2131 1.55205,-0.7473 3.30529,-0.7473 1.55205,0 2.93165,0.5174 1.40834,0.5173 2.44304,1.5233 1.06344,0.9772 1.66702,2.4718 0.63232,1.4945 0.63232,3.4202 0,2.2131 -0.80477,4.8573 -0.77603,2.6155 -1.95443,5.5184 -1.17841,2.8742 -2.55801,5.8921 -1.35086,3.0179 -2.52927,6.007 -1.1784,2.9891 -1.98317,5.8633 -0.77603,2.8454 -0.77603,5.3747 0,2.0406 0.91974,3.2765 0.91973,1.2359 2.96039,1.2359 1.89695,0 3.65019,-0.891 1.75324,-0.891 3.47774,-2.6442 1.7245,-1.782 3.50648,-4.4262 1.81073,-2.6442 3.7939,-6.1507 l 1.49457,-2.6443 0.77602,0.5461 -1.49457,2.6443 q -2.15562,3.8226 -4.08131,6.6393 -1.92569,2.8167 -3.82264,4.6849 -1.86821,1.8394 -3.82264,2.7304 -1.95443,0.9198 -4.19628,0.9198 -2.01192,0 -3.42026,-0.4886 -1.40834,-0.4887 -2.29933,-1.3796 -0.89099,-0.9198 -1.29338,-2.1844 -0.40238,-1.2934 -0.40238,-2.8742 0,-1.9832 0.45987,-4.1963 0.45986,-2.2131 1.20715,-4.5699 0.77602,-2.3568 1.72449,-4.7711 0.97722,-2.443 1.98318,-4.8286 1.0347,-2.3856 1.98317,-4.6561 0.97722,-2.2706 1.7245,-4.3113 0.77603,-2.0407 1.23589,-3.7652 0.45987,-1.7532 0.45987,-3.104 0,-2.4431 -1.17841,-3.6215 -1.14966,-1.2071 -3.04661,-1.2071 -1.60954,0 -3.13284,0.9197 -1.49457,0.9197 -3.04662,2.7304 -1.55205,1.782 -3.24781,4.4263 -1.66701,2.6154 -3.5927,6.0357 l -0.5461,0.9772 -10.77812,29.7476 -4.25376,0 8.65124,-23.913 q 0.89099,-2.4431 1.7245,-4.7711 0.86225,-2.3281 1.5233,-4.3975 0.66106,-2.0694 1.06345,-3.8227 0.43112,-1.7532 0.43112,-3.104 0,-2.4431 -1.26463,-3.7939 -1.23589,-1.3509 -3.21907,-1.3509 -1.60953,0 -3.13284,0.9772 -1.49457,0.9772 -3.04662,2.8167 -1.55204,1.8395 -3.21906,4.5124 -1.63828,2.6443 -3.56397,6.007 l -11.23798,30.8398 -4.253772,0 11.352952,-31.1847 z"
       id="path4143-9"
       style="fill:#4f4648;fill-opacity:1" />
    <path
       inkscape:connector-curvature="0"
       d="m 205.56031,1012.9286 q 0,1.4083 -0.45987,3.2191 -0.43112,1.782 -1.14966,3.8514 -0.6898,2.0406 -1.60953,4.3112 -0.91974,2.2419 -1.89695,4.5987 -0.94848,2.328 -1.86821,4.6849 -0.91973,2.328 -1.63828,4.5986 -0.6898,2.2419 -1.14966,4.34 -0.43113,2.0982 -0.43113,3.9089 0,2.0406 1.0347,3.2765 1.0347,1.2359 3.33403,1.2359 1.89695,0 3.6502,-0.891 1.75324,-0.891 3.47774,-2.6442 1.75324,-1.782 3.53522,-4.4262 1.81072,-2.6442 3.7939,-6.1507 l 1.49456,-2.6443 0.77603,0.5461 -1.49457,2.6443 q -2.15562,3.8226 -4.08131,6.6393 -1.92569,2.8167 -3.82264,4.6849 -1.86821,1.8394 -3.85138,2.7304 -1.95444,0.9198 -4.19629,0.9198 -2.15562,0 -3.65019,-0.4886 -1.49456,-0.4887 -2.44304,-1.3796 -0.94847,-0.9198 -1.3796,-2.1844 -0.40238,-1.2934 -0.40238,-2.8742 0,-1.3796 0.43112,-3.3053 0.45987,-1.9257 1.20715,-4.1675 0.74729,-2.2706 1.66702,-4.7711 0.94847,-2.5005 1.92569,-5.0298 1.00596,-2.558 1.92569,-5.0298 0.94848,-2.5005 1.69576,-4.7136 0.74728,-2.2131 1.17841,-4.0526 0.45986,-1.8395 0.45986,-3.1328 0,-2.4431 -1.26463,-3.7939 -1.23589,-1.3509 -3.21906,-1.3509 -1.7245,0 -3.47774,0.9772 -1.7245,0.9772 -3.50649,2.8454 -1.75324,1.8395 -3.5927,4.5412 -1.81073,2.673 -3.73642,6.0645 l -1.43708,2.5293 -10.26077,28.2243 -4.25377,0 11.32421,-31.2135 q 0.25868,-0.6323 0.60358,-1.7819 0.37364,-1.1497 0.6898,-2.5006 0.3449,-1.3796 0.57483,-2.8454 0.25868,-1.4946 0.25868,-2.7879 0,-0.8623 -0.14371,-1.6096 -0.11497,-0.7472 -0.43113,-1.2646 -0.31616,-0.5461 -0.83351,-0.8622 -0.4886,-0.3162 -1.23589,-0.3162 -1.26463,0 -2.67297,0.8335 -1.3796,0.8048 -2.84542,2.5005 -1.46583,1.6958 -2.98914,4.3113 -1.49456,2.5867 -2.96039,6.1219 l -0.77602,-0.5173 q 1.58079,-3.9089 3.19032,-6.6393 1.63828,-2.7305 3.27655,-4.4262 1.66702,-1.7245 3.30529,-2.5006 1.66702,-0.776 3.30529,-0.776 1.58079,0 2.61549,0.6036 1.06344,0.6036 1.66702,1.667 0.60357,1.0347 0.83351,2.443 0.25867,1.3796 0.25867,2.9604 0,1.0922 -0.20119,2.5293 -0.20119,1.4371 -0.63232,3.0179 1.89695,-3.2191 3.67894,-5.6909 1.78198,-2.4718 3.56396,-4.1388 1.78198,-1.6957 3.62145,-2.5292 1.83947,-0.8623 3.85138,-0.8623 1.58079,0 2.98913,0.5174 1.43709,0.5173 2.50053,1.5233 1.06344,0.9772 1.66701,2.4718 0.63232,1.4945 0.63232,3.4202 z"
       id="path4145-3"
       style="fill:#4f4648;fill-opacity:1" />
    <path
       inkscape:connector-curvature="0"
       d="m 218.49406,1029.1389 q 0.89099,-3.4777 2.32807,-6.6106 1.46583,-3.1328 3.33404,-5.8058 1.8682,-2.7017 4.11005,-4.8573 2.24185,-2.1557 4.71363,-3.679 2.47179,-1.552 5.11602,-2.3568 2.64423,-0.8335 5.34595,-0.8335 5.43217,0 8.30634,3.3628 2.87416,3.3628 2.87416,9.7434 0,2.7305 -0.54609,5.7483 -0.51735,3.0179 -1.52331,6.0645 -1.09218,3.2478 -2.64423,6.1795 -1.52331,2.9316 -3.39151,5.4322 -1.86821,2.4717 -3.99509,4.4837 -2.12689,2.0119 -4.42622,3.4202 -2.29933,1.4084 -4.68489,2.1556 -2.38556,0.7761 -4.74237,0.7761 -2.67298,0 -4.77112,-0.9773 -2.09814,-0.9772 -3.56396,-2.8166 -1.46583,-1.8682 -2.24185,-4.5412 -0.74729,-2.7017 -0.74729,-6.0932 0,-2.0982 0.28742,-4.3113 0.28742,-2.2418 0.86225,-4.4837 z m 10.60567,21.8149 q 2.84543,0 5.80582,-1.6383 2.98913,-1.6382 5.74833,-4.5699 2.78794,-2.9316 5.1735,-6.9555 2.4143,-4.0525 4.1388,-8.8811 1.23589,-3.4778 1.89694,-6.8118 0.6898,-3.3628 0.6898,-6.0645 0,-2.3281 -0.54609,-4.1675 -0.51735,-1.8682 -1.55205,-3.1329 -1.00595,-1.2933 -2.47178,-1.9544 -1.46582,-0.6898 -3.30529,-0.6898 -1.98317,0 -4.02383,0.776 -2.04066,0.776 -4.05258,2.2131 -1.98317,1.4084 -3.88012,3.449 -1.86821,2.0119 -3.53522,4.5412 -1.66702,2.5005 -3.07536,5.4322 -1.40834,2.9316 -2.44304,6.1507 -0.97722,3.1328 -1.49457,6.1795 -0.51735,3.0178 -0.51735,5.6621 0,5.116 1.89695,7.7889 1.89695,2.673 5.54714,2.673 z"
       id="path4147-9"
       style="fill:#4f4648;fill-opacity:1" />
    <path
       inkscape:connector-curvature="0"
       d="m 275.00016,1020.0565 q 0.25868,-0.6323 0.60358,-1.7819 0.37364,-1.1497 0.6898,-2.5006 0.3449,-1.3796 0.57483,-2.8454 0.25868,-1.4946 0.25868,-2.7879 0,-0.8623 -0.14371,-1.6096 -0.11497,-0.7472 -0.43113,-1.2646 -0.31615,-0.5461 -0.8335,-0.8622 -0.48861,-0.3162 -1.2359,-0.3162 -1.26463,0 -2.67297,0.8335 -1.3796,0.8048 -2.84542,2.5005 -1.46583,1.6958 -2.98914,4.3113 -1.49456,2.5867 -2.96039,6.1219 l -0.77602,-0.5173 q 1.58079,-3.9089 3.19032,-6.6393 1.63828,-2.7305 3.27655,-4.4262 1.66702,-1.7245 3.30529,-2.5006 1.66702,-0.776 3.30529,-0.776 1.58079,0 2.61549,0.6036 1.06344,0.6036 1.66702,1.667 0.60357,1.0347 0.83351,2.443 0.25867,1.3796 0.25867,2.9604 0,0.8335 -0.11496,1.8682 -0.11497,1.006 -0.3449,2.0982 1.66701,-2.8454 3.16158,-5.0298 1.52331,-2.1844 3.01787,-3.6502 1.49457,-1.4658 3.01788,-2.2131 1.55205,-0.7473 3.30529,-0.7473 1.58079,0 2.98913,0.5174 1.43708,0.5173 2.50052,1.5233 1.06344,0.9772 1.66702,2.4718 0.63232,1.4945 0.63232,3.4202 0,0.9485 -0.14371,1.8395 -0.14371,0.891 -0.43113,1.8107 1.66702,-2.8454 3.16159,-5.001 1.5233,-2.1844 2.98913,-3.6215 1.49456,-1.4658 3.01787,-2.2131 1.55205,-0.7473 3.30529,-0.7473 1.55205,0 2.93165,0.5174 1.40834,0.5173 2.44304,1.5233 1.06344,0.9772 1.66702,2.4718 0.63232,1.4945 0.63232,3.4202 0,2.2131 -0.80477,4.8573 -0.77603,2.6155 -1.95443,5.5184 -1.17841,2.8742 -2.55801,5.8921 -1.35086,3.0179 -2.52927,6.007 -1.17841,2.9891 -1.98317,5.8633 -0.77603,2.8454 -0.77603,5.3747 0,2.0406 0.91974,3.2765 0.91973,1.2359 2.96039,1.2359 1.89695,0 3.65019,-0.891 1.75324,-0.891 3.47774,-2.6442 1.7245,-1.782 3.50648,-4.4262 1.81072,-2.6442 3.7939,-6.1507 l 1.49457,-2.6443 0.77602,0.5461 -1.49457,2.6443 q -2.15562,3.8226 -4.08131,6.6393 -1.92569,2.8167 -3.82264,4.6849 -1.86821,1.8394 -3.82264,2.7304 -1.95443,0.9198 -4.19628,0.9198 -2.01192,0 -3.42026,-0.4886 -1.40834,-0.4887 -2.29933,-1.3796 -0.891,-0.9198 -1.29338,-2.1844 -0.40238,-1.2934 -0.40238,-2.8742 0,-1.9832 0.45986,-4.1963 0.45987,-2.2131 1.20715,-4.5699 0.77603,-2.3568 1.7245,-4.7711 0.97722,-2.443 1.98318,-4.8286 1.0347,-2.3856 1.98317,-4.6561 0.97722,-2.2706 1.7245,-4.3113 0.77603,-2.0407 1.23589,-3.7652 0.45987,-1.7532 0.45987,-3.104 0,-2.4431 -1.17841,-3.6215 -1.14966,-1.2071 -3.04661,-1.2071 -1.60954,0 -3.13284,0.9197 -1.49457,0.9197 -3.04662,2.7304 -1.55205,1.782 -3.24781,4.4263 -1.66701,2.6154 -3.5927,6.0357 l -0.5461,0.9772 -10.77812,29.7476 -4.25376,0 8.65124,-23.913 q 0.89099,-2.4431 1.72449,-4.7711 0.86225,-2.3281 1.52331,-4.3975 0.66106,-2.0694 1.06344,-3.8227 0.43113,-1.7532 0.43113,-3.104 0,-2.4431 -1.26463,-3.7939 -1.2359,-1.3509 -3.21907,-1.3509 -1.60953,0 -3.13284,0.9772 -1.49457,0.9772 -3.04662,2.8167 -1.55205,1.8395 -3.21906,4.5124 -1.63828,2.6443 -3.56397,6.007 l -11.23799,30.8398 -4.25376,0 11.35295,-31.1847 z"
       id="path4149-0"
       style="fill:#4f4648;fill-opacity:1" />
    <path
       inkscape:connector-curvature="0"
       d="m 363.38076,1018.7632 q 1.09219,-1.6383 1.60954,-3.0754 0.51735,-1.4371 0.51735,-2.9316 0,-1.5521 -0.51735,-2.788 -0.48861,-1.2359 -1.43709,-2.1269 -0.94847,-0.891 -2.32807,-1.3508 -1.35086,-0.4886 -3.04662,-0.4886 -2.01191,0 -3.67893,0.661 -1.63827,0.6611 -2.81668,1.8682 -1.14967,1.2072 -1.78198,2.9029 -0.63232,1.6958 -0.63232,3.7652 0,2.0694 0.57483,4.0526 0.57484,1.9544 1.43709,3.9088 0.86225,1.9257 1.8682,3.8227 1.0347,1.8969 1.89695,3.7939 0.86225,1.8969 1.43709,3.8226 0.57483,1.9257 0.57483,3.9089 0,2.0119 -0.63232,3.8514 -0.63231,1.8107 -1.78198,3.334 -1.12092,1.5233 -2.67297,2.7592 -1.55205,1.2359 -3.39152,2.0981 -1.81072,0.8623 -3.85138,1.3222 -2.04066,0.4598 -4.1388,0.4598 -3.19032,0 -5.60462,-1.0059 -2.4143,-1.006 -4.05258,-2.673 -1.63827,-1.667 -2.47178,-3.8227 -0.80477,-2.1843 -0.80477,-4.5124 0,-1.4658 0.31616,-2.8167 0.31616,-1.3508 0.86225,-2.3855 0.57483,-1.0347 1.32212,-1.6383 0.77602,-0.6036 1.66701,-0.6036 0.77603,0 1.20715,0.4311 0.45987,0.4312 0.45987,1.1785 0,0.6035 -0.31616,1.0059 -0.28741,0.3737 -0.71854,0.6323 -0.43112,0.2587 -0.91973,0.4312 -0.48861,0.1724 -0.86225,0.3449 -0.74729,0.3449 -1.26464,1.1784 -0.4886,0.8335 -0.4886,2.5867 0,1.782 0.66105,3.6215 0.66106,1.8394 2.01192,3.334 1.3796,1.4946 3.47774,2.443 2.09814,0.9198 4.97231,0.9198 2.50052,0 4.71363,-0.7473 2.24185,-0.776 3.90887,-2.2419 1.69575,-1.4945 2.67297,-3.7076 0.97722,-2.2419 0.97722,-5.1735 0,-2.2131 -0.5461,-4.0814 -0.51735,-1.8682 -1.32211,-3.5639 -0.77603,-1.6958 -1.7245,-3.2766 -0.91973,-1.6095 -1.7245,-3.2765 -0.77603,-1.667 -1.32212,-3.449 -0.51735,-1.8107 -0.51735,-3.9376 0,-2.7017 0.91974,-4.9723 0.94847,-2.2994 2.67297,-3.9664 1.7245,-1.667 4.1388,-2.5867 2.44304,-0.9485 5.43217,-0.9485 2.15563,0 3.88013,0.5173 1.75324,0.4887 2.96039,1.4371 1.23589,0.9485 1.8682,2.2994 0.66106,1.3508 0.66106,3.0466 0,1.8682 -0.80476,3.5352 -0.80477,1.6383 -2.52927,3.334 l -0.97722,-0.4598 z"
       id="path4151-8"
       style="fill:#4f4648;fill-opacity:1" />
  </g>
</svg>
