<?xml version="1.0" encoding="UTF-8" standalone="no"?>
<!-- Created with Inkscape (http://www.inkscape.org/) -->

<svg
   xmlns:svg="http://www.w3.org/2000/svg"
   xmlns="http://www.w3.org/2000/svg"
   xmlns:sodipodi="http://sodipodi.sourceforge.net/DTD/sodipodi-0.dtd"
   xmlns:inkscape="http://www.inkscape.org/namespaces/inkscape"
   width="18.538"
   height="20"
   viewBox="0 0 18.538 20"
   id="svg4382"
   version="1.1"
   inkscape:version="0.91 r13725"
   sodipodi:docname="bold-dark.svg">
  <defs
     id="defs4384" />
  <sodipodi:namedview
     id="base"
     pagecolor="#ffffff"
     bordercolor="#666666"
     borderopacity="1.0"
     inkscape:pageopacity="0.0"
     inkscape:pageshadow="2"
     inkscape:zoom="16"
     inkscape:cx="20.376132"
     inkscape:cy="7.6586276"
     inkscape:document-units="px"
     inkscape:current-layer="layer1"
     showgrid="true"
     units="px"
     inkscape:window-width="1855"
     inkscape:window-height="1056"
     inkscape:window-x="65"
     inkscape:window-y="24"
     inkscape:window-maximized="1"
     inkscape:object-nodes="true">
    <inkscape:grid
       type="xygrid"
       id="grid8753" />
  </sodipodi:namedview>
  <g
     inkscape:label="Layer 1"
     inkscape:groupmode="layer"
     id="layer1"
     transform="translate(0,-1032.3622)">
    <path
       inkscape:connector-curvature="0"
       id="path4188-8"
       d="m 4.4533011e-4,1032.3617 0,0.5664 c 0.59770099989,0.028 1.03020806989,0.1012 1.29687506989,0.2207 0.275862,0.1195 0.463304,0.3403 0.564453,0.6621 0.10115,0.3218 0.152344,0.8349 0.152344,1.543 l 0,14.0156 c 0,0.708 -0.05119,1.2211 -0.152344,1.543 -0.09195,0.3218 -0.274919,0.5426 -0.550781,0.6621 -0.266667,0.1195 -0.70365007,0.1944 -1.31054706989,0.2226 l 0,0.5665 C 1.0763074,1052.3087 2.7173774,1052.2797 4.9242734,1052.2797 c 1.02069,0 2.032858,0.014 3.035156,0.041 1.002299,0.027 1.700301,0.041 2.0957046,0.041 2.703448,0 4.790454,-0.4504 6.261718,-1.3516 1.48046,-0.9104 2.220703,-2.2859 2.220703,-4.125 0,-0.8184 -0.274447,-1.5855 -0.826171,-2.3027 -0.542529,-0.7265 -1.416497,-1.333 -2.621094,-1.8203 -1.195403,-0.4965 -2.713655,-0.7908 -4.552735,-0.8828 l 0,-0.055 c 1.416092,-0.1747 2.617654,-0.5247 3.601563,-1.0488 0.983908,-0.5334 1.715199,-1.1488 2.193359,-1.8477 0.487356,-0.6989 0.730469,-1.3988 0.730469,-2.0976 0,-0.8828 -0.285354,-1.6544 -0.855469,-2.3165 -0.570114,-0.6712 -1.430653,-1.1907 -2.580078,-1.5585 -1.14023,-0.377 -2.54714,-0.5665 -4.2207036,-0.5665 -0.358621,0 -1.009905,0.011 -1.957031,0.029 -0.947127,0.018 -1.807665,0.025 -2.580078,0.025 -2.170115,0 -3.793279,-0.027 -4.86914106989,-0.082 z M 9.2699764,1032.9281 c 0.708046,0 1.2141306,0.3435 1.5175786,1.0332 0.303449,0.6897 0.455079,1.7466 0.455079,3.1719 0,1.4069 -0.202824,2.5304 -0.607422,3.3672 -0.395402,0.8276 -1.1043116,1.2402 -2.1250006,1.2402 l -0.771485,0 0,-6.3867 c 0,-0.6713 0.03581,-1.1754 0.109375,-1.5156 0.08276,-0.3402 0.229912,-0.5764 0.441406,-0.7051 0.22069,-0.1379 0.548285,-0.2051 0.980469,-0.2051 z m -1.53125,9.2949 0.400391,0 c 1.554023,0 2.6845326,0.3878 3.3925786,1.1602 0.717241,0.7724 1.076172,1.8984 1.076172,3.3789 0,3.3011 -1.007691,4.9512 -3.0214856,4.9512 -0.533333,0 -0.928075,-0.06 -1.185546,-0.1797 -0.248276,-0.1196 -0.424242,-0.3403 -0.525391,-0.6621 -0.09195,-0.3218 -0.136719,-0.8215 -0.136719,-1.502 l 0,-7.1465 z"
       style="fill:#4d4849;fill-opacity:1" />
  </g>
</svg>
