<?xml version="1.0" encoding="UTF-8" standalone="no"?>
<!-- Created with Inkscape (http://www.inkscape.org/) -->

<svg
   xmlns:dc="http://purl.org/dc/elements/1.1/"
   xmlns:cc="http://creativecommons.org/ns#"
   xmlns:rdf="http://www.w3.org/1999/02/22-rdf-syntax-ns#"
   xmlns:svg="http://www.w3.org/2000/svg"
   xmlns="http://www.w3.org/2000/svg"
   xmlns:sodipodi="http://sodipodi.sourceforge.net/DTD/sodipodi-0.dtd"
   xmlns:inkscape="http://www.inkscape.org/namespaces/inkscape"
   width="28"
   height="28"
   viewBox="0 0 28 28"
   id="svg4382"
   version="1.1"
   inkscape:version="0.91 r13725"
   sodipodi:docname="heart-red.svg">
  <defs
     id="defs4384" />
  <sodipodi:namedview
     id="base"
     pagecolor="#ffffff"
     bordercolor="#666666"
     borderopacity="1.0"
     inkscape:pageopacity="0.0"
     inkscape:pageshadow="2"
     inkscape:zoom="8"
     inkscape:cx="-13.652304"
     inkscape:cy="13.749185"
     inkscape:document-units="px"
     inkscape:current-layer="layer1"
     showgrid="false"
     units="px"
     inkscape:window-width="1855"
     inkscape:window-height="1056"
     inkscape:window-x="65"
     inkscape:window-y="24"
     inkscape:window-maximized="1"
     inkscape:object-nodes="true"
     inkscape:snap-bbox="true"
     inkscape:snap-bbox-edge-midpoints="true">
    <inkscape:grid
       type="xygrid"
       id="grid8753" />
  </sodipodi:namedview>
  <metadata
     id="metadata4387">
    <rdf:RDF>
      <cc:Work
         rdf:about="">
        <dc:format>image/svg+xml</dc:format>
        <dc:type
           rdf:resource="http://purl.org/dc/dcmitype/StillImage" />
        <dc:title />
      </cc:Work>
    </rdf:RDF>
  </metadata>
  <g
     inkscape:label="Layer 1"
     inkscape:groupmode="layer"
     id="layer1"
     transform="translate(0,-1024.3622)">
    <path
       style="color:#000000;font-style:normal;font-variant:normal;font-weight:normal;font-stretch:normal;font-size:medium;line-height:normal;font-family:sans-serif;text-indent:0;text-align:start;text-decoration:none;text-decoration-line:none;text-decoration-style:solid;text-decoration-color:#000000;letter-spacing:normal;word-spacing:normal;text-transform:none;direction:ltr;block-progression:tb;writing-mode:lr-tb;baseline-shift:baseline;text-anchor:start;white-space:normal;clip-rule:nonzero;display:inline;overflow:visible;visibility:visible;opacity:1;isolation:auto;mix-blend-mode:normal;color-interpolation:sRGB;color-interpolation-filters:linearRGB;solid-color:#000000;solid-opacity:1;fill:#d27a5d;fill-opacity:1;fill-rule:nonzero;stroke:none;stroke-width:1;stroke-linecap:butt;stroke-linejoin:miter;stroke-miterlimit:4;stroke-dasharray:none;stroke-dashoffset:0;stroke-opacity:1;color-rendering:auto;image-rendering:auto;shape-rendering:auto;text-rendering:auto;enable-background:accumulate"
       d="m 10.078125,1030.8612 c -2.437958,0 -4.423828,1.9959 -4.423828,4.4414 0,2.1363 1.08741,3.7602 2.597656,5.2774 1.510246,1.5172 3.462528,2.9868 5.394531,4.9277 L 14,1045.8632 l 0.353516,-0.3555 c 1.932004,-1.9409 3.884291,-3.4105 5.394531,-4.9277 1.51024,-1.5172 2.597656,-3.1411 2.597656,-5.2774 0,-2.4305 -1.886282,-4.4414 -4.324219,-4.4414 -2.54809,0 -3.552763,1.5801 -4.017578,2.4981 -0.457872,-0.918 -1.443696,-2.4981 -3.925781,-2.4981 z m 0,1 c 2.607236,0 3.447266,2.6133 3.447266,2.6133 L 14,1035.9042 l 0.474609,-1.4297 c 0,0 0.830754,-2.6133 3.546875,-2.6133 1.89503,0 3.324219,1.5188 3.324219,3.4414 0,1.8045 -0.874787,3.1339 -2.306641,4.5723 -1.338072,1.3442 -3.18314,2.7954 -5.039062,4.6035 -1.855923,-1.8081 -3.700984,-3.2593 -5.039063,-4.6035 -1.431859,-1.4384 -2.30664,-2.7678 -2.30664,-4.5723 0,-1.9076 1.528772,-3.4414 3.423828,-3.4414 z"
       id="path4254-2-4"
       inkscape:connector-curvature="0" />
  </g>
</svg>
