<?xml version="1.0" encoding="UTF-8" standalone="no"?>
<!-- Created with Inkscape (http://www.inkscape.org/) -->

<svg
   xmlns:dc="http://purl.org/dc/elements/1.1/"
   xmlns:cc="http://creativecommons.org/ns#"
   xmlns:rdf="http://www.w3.org/1999/02/22-rdf-syntax-ns#"
   xmlns:svg="http://www.w3.org/2000/svg"
   xmlns="http://www.w3.org/2000/svg"
   xmlns:sodipodi="http://sodipodi.sourceforge.net/DTD/sodipodi-0.dtd"
   xmlns:inkscape="http://www.inkscape.org/namespaces/inkscape"
   width="19.999001"
   height="20"
   viewBox="0 0 19.999001 20"
   id="svg4382"
   version="1.1"
   inkscape:version="0.91 r13725"
   sodipodi:docname="link-light.svg">
  <defs
     id="defs4384" />
  <sodipodi:namedview
     id="base"
     pagecolor="#ffffff"
     bordercolor="#666666"
     borderopacity="1.0"
     inkscape:pageopacity="0.0"
     inkscape:pageshadow="2"
     inkscape:zoom="16"
     inkscape:cx="-5.541451"
     inkscape:cy="11.505308"
     inkscape:document-units="px"
     inkscape:current-layer="layer1"
     showgrid="true"
     units="px"
     inkscape:window-width="1855"
     inkscape:window-height="1056"
     inkscape:window-x="65"
     inkscape:window-y="24"
     inkscape:window-maximized="1"
     inkscape:object-nodes="true">
    <inkscape:grid
       type="xygrid"
       id="grid8753" />
  </sodipodi:namedview>
  <metadata
     id="metadata4387">
    <rdf:RDF>
      <cc:Work
         rdf:about="">
        <dc:format>image/svg+xml</dc:format>
        <dc:type
           rdf:resource="http://purl.org/dc/dcmitype/StillImage" />
        <dc:title></dc:title>
      </cc:Work>
    </rdf:RDF>
  </metadata>
  <g
     inkscape:label="Layer 1"
     inkscape:groupmode="layer"
     id="layer1"
     transform="translate(0,-1032.3622)">
    <path
       inkscape:connector-curvature="0"
       id="rect6937"
       d="m 16.56536,1032.4796 c -1.285895,-0.3096 -2.655282,-0.012 -3.622307,0.9543 l -2.649258,2.6504 c -1.3676459,1.3677 -1.3920329,3.5386 -0.262068,5.1427 l -1.1676379,1.1681 c -1.603909,-1.1309 -3.7750684,-1.1058 -5.1429412,0.2621 l -2.64885,2.649 c -1.54726703,1.5472 -1.37951703,4.1254 0.239317,5.7444 1.618861,1.6187 4.1964858,1.7861 5.7437222,0.2388 l 2.648851,-2.6489 c 1.3676429,-1.3677 1.3922269,-3.5387 0.262067,-5.1427 l 1.1676379,-1.1681 c 1.604105,1.1307 3.775064,1.1059 5.142942,-0.262 l 2.650727,-2.65 c 1.54724,-1.5472 1.377638,-4.1245 -0.241194,-5.7433 -0.607054,-0.6071 -1.349327,-1.0096 -2.121008,-1.1948 z m -0.341026,1.5077 c 0.481609,0.1174 0.953904,0.3809 1.361144,0.7882 1.086044,1.0859 1.133138,2.6492 0.24101,3.5412 l -2.649289,2.6506 c -0.731834,0.7319 -1.912888,0.8197 -2.914266,0.2326 l 1.489823,-1.4895 a 0.77846518,0.77846518 0 0 0 3.56e-4,-1.1173 0.77846518,0.77846518 0 0 0 -1.101432,0.017 l -1.489854,1.4896 c -0.58701,-1.0012 -0.498859,-2.182 0.233046,-2.9139 l 2.650728,-2.6501 c 0.557603,-0.5575 1.377235,-0.748 2.178734,-0.5479 z m -9.2229649,9.2214 c 0.252225,0.056 0.495812,0.1747 0.734095,0.3148 l -1.490232,1.4909 a 0.77890188,0.77890188 0 1 0 1.100698,1.1023 l 1.492107,-1.4921 c 0.587618,1.0016 0.498595,2.1833 -0.233455,2.9154 l -2.6488504,2.6489 c -0.892154,0.8923 -2.4572078,0.8465 -3.5432218,-0.2396 -1.086013,-1.086 -1.131259,-2.6503 -0.239134,-3.5423 l 2.6488788,-2.649 c 0.557572,-0.5576 1.3776144,-0.7494 2.1791144,-0.5493 z"
       style="color:#000000;font-style:normal;font-variant:normal;font-weight:normal;font-stretch:normal;font-size:medium;line-height:normal;font-family:sans-serif;text-indent:0;text-align:start;text-decoration:none;text-decoration-line:none;text-decoration-style:solid;text-decoration-color:#000000;letter-spacing:normal;word-spacing:normal;text-transform:none;direction:ltr;block-progression:tb;writing-mode:lr-tb;baseline-shift:baseline;text-anchor:start;white-space:normal;clip-rule:nonzero;display:inline;overflow:visible;visibility:visible;opacity:1;isolation:auto;mix-blend-mode:normal;color-interpolation:sRGB;color-interpolation-filters:linearRGB;solid-color:#000000;solid-opacity:1;fill:#f2f1ef;fill-opacity:1;fill-rule:nonzero;stroke:none;stroke-width:1.94826782;stroke-linecap:square;stroke-linejoin:miter;stroke-miterlimit:4;stroke-dasharray:none;stroke-dashoffset:0;stroke-opacity:1;color-rendering:auto;image-rendering:auto;shape-rendering:auto;text-rendering:auto;enable-background:accumulate" />
  </g>
</svg>
