<?xml version="1.0" encoding="UTF-8" standalone="no"?>
<!-- Created with Inkscape (http://www.inkscape.org/) -->

<svg
   xmlns:dc="http://purl.org/dc/elements/1.1/"
   xmlns:cc="http://creativecommons.org/ns#"
   xmlns:rdf="http://www.w3.org/1999/02/22-rdf-syntax-ns#"
   xmlns:svg="http://www.w3.org/2000/svg"
   xmlns="http://www.w3.org/2000/svg"
   xmlns:sodipodi="http://sodipodi.sourceforge.net/DTD/sodipodi-0.dtd"
   xmlns:inkscape="http://www.inkscape.org/namespaces/inkscape"
   width="28"
   height="28"
   viewBox="0 0 28 28"
   id="svg4382"
   version="1.1"
   inkscape:version="0.91 r13725"
   sodipodi:docname="new-user-dark.svg">
  <defs
     id="defs4384" />
  <sodipodi:namedview
     id="base"
     pagecolor="#ffffff"
     bordercolor="#666666"
     borderopacity="1.0"
     inkscape:pageopacity="0.0"
     inkscape:pageshadow="2"
     inkscape:zoom="16"
     inkscape:cx="16.478586"
     inkscape:cy="17.286953"
     inkscape:document-units="px"
     inkscape:current-layer="layer1"
     showgrid="true"
     units="px"
     inkscape:window-width="1855"
     inkscape:window-height="1056"
     inkscape:window-x="65"
     inkscape:window-y="24"
     inkscape:window-maximized="1"
     inkscape:object-nodes="true">
    <inkscape:grid
       type="xygrid"
       id="grid8753" />
  </sodipodi:namedview>
  <metadata
     id="metadata4387">
    <rdf:RDF>
      <cc:Work
         rdf:about="">
        <dc:format>image/svg+xml</dc:format>
        <dc:type
           rdf:resource="http://purl.org/dc/dcmitype/StillImage" />
        <dc:title></dc:title>
      </cc:Work>
    </rdf:RDF>
  </metadata>
  <g
     inkscape:label="Layer 1"
     inkscape:groupmode="layer"
     id="layer1"
     transform="translate(0,-1024.3622)">
    <path
       inkscape:connector-curvature="0"
       style="color:#000000;font-style:normal;font-variant:normal;font-weight:normal;font-stretch:normal;font-size:medium;line-height:normal;font-family:sans-serif;text-indent:0;text-align:start;text-decoration:none;text-decoration-line:none;text-decoration-style:solid;text-decoration-color:#000000;letter-spacing:normal;word-spacing:normal;text-transform:none;direction:ltr;block-progression:tb;writing-mode:lr-tb;baseline-shift:baseline;text-anchor:start;white-space:normal;clip-rule:nonzero;display:inline;overflow:visible;visibility:visible;opacity:1;isolation:auto;mix-blend-mode:normal;color-interpolation:sRGB;color-interpolation-filters:linearRGB;solid-color:#000000;solid-opacity:1;fill:#4d4849;fill-opacity:1;fill-rule:nonzero;stroke:none;stroke-width:0.99999994;stroke-linecap:square;stroke-linejoin:miter;stroke-miterlimit:4;stroke-dasharray:none;stroke-dashoffset:0;stroke-opacity:1;color-rendering:auto;image-rendering:auto;shape-rendering:auto;text-rendering:auto;enable-background:accumulate"
       d="m 13.392578,1030.3622 c -2.736067,0 -4.8125,2.0531 -4.8125,4.793 0,1.1894 0.406936,2.2481 1.072266,3.084 -1.379944,0.5588 -2.14771,1.4537 -2.603516,2.4238 C 6.58207,1041.6564 6,1045.3622 6,1045.3622 l 1,0 13,0 0.787109,0 c 0,0 -0.298755,-1.8797 -0.638671,-3.3223 1.665804,-0.6605 2.851562,-2.281 2.851562,-4.1777 0,-2.4794 -2.020641,-4.5 -4.5,-4.5 -0.208204,0 -0.406612,0.035 -0.607422,0.062 -0.67124,-1.8258 -2.382705,-3.0625 -4.5,-3.0625 z m 0,1 c 1.709355,0 3.012882,0.8864 3.546875,2.2949 C 15.228854,1034.2952 14,1035.9332 14,1037.8622 c 0,0.38 0.06108,0.7429 0.150391,1.0957 -0.24309,0.043 -0.494704,0.07 -0.757813,0.07 -2.245717,0 -3.8125,-1.6182 -3.8125,-3.873 0,-2.2548 1.556293,-3.793 3.8125,-3.793 z m 4.607422,4 1,0 0,0.582 0,1.418 1.474609,0 0.525391,0 0,1 -0.525391,0 -1.474609,0 0,1.418 0,0.582 -1,0 0,-0.582 0,-1.418 -1.474609,0 -0.525391,0 0,-1 0.525391,0 1.474609,0 0,-1.418 0,-0.582 z m -7.578125,3.6445 c 0.808698,0.6329 1.82372,1.0215 2.970703,1.0215 0.388245,0 0.754119,-0.059 1.109375,-0.1426 0.744339,1.4623 2.249408,2.4766 3.998047,2.4766 0.213504,0 0.417343,-0.034 0.623047,-0.062 0.138629,0.7505 0.271398,1.6138 0.359375,2.0625 l -12.177734,0 c 0.149944,-0.7647 0.422768,-2.789 0.65039,-3.2734 0.392669,-0.8357 0.92442,-1.4886 2.152344,-1.961 l 0.314453,-0.1211 z"
       id="path5918-9-0" />
  </g>
</svg>
