<?xml version="1.0" encoding="UTF-8" standalone="no"?>
<!-- Created with Inkscape (http://www.inkscape.org/) -->

<svg
   xmlns:svg="http://www.w3.org/2000/svg"
   xmlns="http://www.w3.org/2000/svg"
   xmlns:sodipodi="http://sodipodi.sourceforge.net/DTD/sodipodi-0.dtd"
   xmlns:inkscape="http://www.inkscape.org/namespaces/inkscape"
   width="14"
   height="20"
   viewBox="0 0 14 20"
   id="svg4382"
   version="1.1"
   inkscape:version="0.91 r13725"
   sodipodi:docname="strikethrough-light.svg">
  <defs
     id="defs4384" />
  <sodipodi:namedview
     id="base"
     pagecolor="#ffffff"
     bordercolor="#666666"
     borderopacity="1.0"
     inkscape:pageopacity="0.0"
     inkscape:pageshadow="2"
     inkscape:zoom="16"
     inkscape:cx="-7.6288192"
     inkscape:cy="10.317808"
     inkscape:document-units="px"
     inkscape:current-layer="layer1"
     showgrid="true"
     units="px"
     inkscape:window-width="1855"
     inkscape:window-height="1056"
     inkscape:window-x="65"
     inkscape:window-y="24"
     inkscape:window-maximized="1"
     inkscape:object-nodes="true">
    <inkscape:grid
       type="xygrid"
       id="grid8753" />
  </sodipodi:namedview>
  <g
     inkscape:label="Layer 1"
     inkscape:groupmode="layer"
     id="layer1"
     transform="translate(0,-1032.3622)">
    <path
       d="m 6.414062,1032.3622 c -0.951022,0 -1.824045,0.1807 -2.621093,0.543 -0.787991,0.3533 -1.422303,0.8926 -1.902344,1.6172 -0.470983,0.7246 -0.707031,1.6115 -0.707031,2.6621 0,0.9025 0.187222,1.6941 0.542968,2.3847 l 3.636719,0 c -0.422533,-0.3196 -0.82321,-0.6519 -1.177734,-1.0117 -0.606844,-0.6159 -0.910156,-1.4262 -0.910156,-2.4316 0,-0.634 0.145711,-1.1965 0.435547,-1.6856 0.289835,-0.4891 0.692714,-0.8689 1.208984,-1.1406 0.51627,-0.2717 1.099823,-0.4082 1.751953,-0.4082 0.978196,0 1.795135,0.2545 2.447266,0.7617 0.661187,0.4981 1.159018,1.149 1.49414,1.9551 0.34418,0.8061 0.552541,1.6857 0.625,2.6367 l 0.638672,0 c 0,-2.6991 0.04419,-4.5928 0.134766,-5.6797 l -0.638672,0 c -0.05434,0.4257 -0.126223,0.7382 -0.216797,0.9375 -0.09057,0.1902 -0.222441,0.2852 -0.394531,0.2852 -0.217377,0 -0.534533,-0.1318 -0.951172,-0.3945 -0.326065,-0.2174 -0.624762,-0.3934 -0.896485,-0.5293 -0.271721,-0.1449 -0.61461,-0.263 -1.03125,-0.3536 -0.407581,-0.1 -0.898134,-0.1484 -1.46875,-0.1484 z m -6.414062,9 0,1 14,0 0,-1 z m 7.902344,2.8008 c 0.216752,0.1537 0.450417,0.3129 0.630859,0.4551 0.597786,0.471 1.069883,0.9919 1.414063,1.5625 0.353237,0.5615 0.529297,1.2005 0.529297,1.916 0,0.8333 -0.171445,1.5302 -0.515626,2.0918 -0.335122,0.5525 -0.779531,0.96 -1.332031,1.2226 -0.543442,0.2627 -1.131609,0.3946 -1.765625,0.3946 -1.657498,0 -2.884592,-0.5809 -3.68164,-1.7403 -0.797049,-1.1684 -1.259916,-2.6941 -1.386719,-4.5781 l -0.638672,0 c 0,3.4328 -0.03496,5.6555 -0.107422,6.6699 l 0.638672,0 c 0.05434,-0.4257 0.126223,-0.7336 0.216797,-0.9238 0.09057,-0.1992 0.222441,-0.2988 0.394531,-0.2988 0.217377,0 0.534533,0.1319 0.951172,0.3945 0.507213,0.317 1.04462,0.5669 1.615234,0.7481 0.570615,0.1902 1.299878,0.2851 2.1875,0.2851 1.104999,0 2.102613,-0.1991 2.990235,-0.5976 0.896679,-0.3986 1.607485,-0.9933 2.132812,-1.7813 0.525328,-0.797 0.78711,-1.765 0.78711,-2.9062 0,-0.942 -0.203747,-1.7662 -0.611328,-2.4727 -0.08664,-0.1521 -0.182327,-0.2975 -0.28125,-0.4414 z"
       id="text7125"
       inkscape:connector-curvature="0"
       sodipodi:nodetypes="sccscccsssscccccccscccsccccccccsccsccccccsccsccsccc"
       style="fill:#f2f1ef;fill-opacity:1" />
  </g>
</svg>
