<?xml version="1.0" encoding="UTF-8" standalone="no"?>
<!-- Created with Inkscape (http://www.inkscape.org/) -->

<svg
   xmlns:svg="http://www.w3.org/2000/svg"
   xmlns="http://www.w3.org/2000/svg"
   xmlns:sodipodi="http://sodipodi.sourceforge.net/DTD/sodipodi-0.dtd"
   xmlns:inkscape="http://www.inkscape.org/namespaces/inkscape"
   width="17.391001"
   height="20"
   viewBox="0 0 17.391001 20"
   id="svg4382"
   version="1.1"
   inkscape:version="0.91 r13725"
   sodipodi:docname="underline-light.svg">
  <defs
     id="defs4384" />
  <sodipodi:namedview
     id="base"
     pagecolor="#ffffff"
     bordercolor="#666666"
     borderopacity="1.0"
     inkscape:pageopacity="0.0"
     inkscape:pageshadow="2"
     inkscape:zoom="16"
     inkscape:cx="-12.541451"
     inkscape:cy="9.817808"
     inkscape:document-units="px"
     inkscape:current-layer="layer1"
     showgrid="true"
     units="px"
     inkscape:window-width="1855"
     inkscape:window-height="1056"
     inkscape:window-x="65"
     inkscape:window-y="24"
     inkscape:window-maximized="1"
     inkscape:object-nodes="true">
    <inkscape:grid
       type="xygrid"
       id="grid8753" />
  </sodipodi:namedview>
  <g
     inkscape:label="Layer 1"
     inkscape:groupmode="layer"
     id="layer1"
     transform="translate(0,-1032.3622)">
    <path
       inkscape:connector-curvature="0"
       id="path7121"
       d="m 1.8757384e-4,1032.3622 0,0.5547 c 0.66711729616,0.027 1.14976732616,0.1 1.44726562616,0.2168 0.3065134,0.1172 0.5129125,0.3329 0.6210937,0.6484 0.1171964,0.3155 0.1757813,0.8195 0.1757813,1.5137 l 0,5.6406 c 0,1.2982 0.058585,2.3527 0.1757816,3.1641 0.117196,0.8114 0.320891,1.507 0.609375,2.084 0.297498,0.5679 0.721563,1.1072 1.271484,1.6211 1.0727974,1.0006 2.6219944,1.5019 4.6503914,1.5019 1.1178728,0 2.1231298,-0.2297 3.0156248,-0.6894 0.90151,-0.4688 1.587855,-1.1013 2.05664,-1.8946 0.40568,-0.6852 0.693948,-1.5006 0.865235,-2.4472 0.180303,-0.9556 0.269531,-2.0948 0.269531,-3.42 l 0,-5.2753 c 0,-0.7122 0.05393,-1.2488 0.162109,-1.6094 0.117196,-0.3606 0.330206,-0.6182 0.636719,-0.7715 0.315529,-0.1619 0.793522,-0.2562 1.433594,-0.2832 l 0,-0.5547 c -0.604011,0.054 -1.461456,0.08 -2.570313,0.08 -1.217039,0 -2.159055,-0.026 -2.826172,-0.08 l 0,0.5547 c 0.649087,0.027 1.150364,0.1209 1.501953,0.2832 0.360604,0.1623 0.616275,0.4292 0.769532,0.7988 0.162268,0.3696 0.24414,0.897 0.24414,1.5821 l 0,5.5859 c 0,2.2718 -0.396124,4.0339 -1.189453,5.2871 -0.793329,1.253 -2.168723,1.8789 -4.1249998,1.8789 -1.244084,0 -2.1861,-0.2976 -2.826172,-0.8926 -0.631057,-0.595 -1.045808,-1.3779 -1.24414,-2.3515 -0.198333,-0.9737 -0.296875,-2.2013 -0.296875,-3.6797 l 0,-6.1133 c 0,-0.6942 0.05393,-1.1982 0.162109,-1.5137 0.117196,-0.3155 0.323596,-0.5312 0.621094,-0.6484 0.306513,-0.1173 0.79382,-0.1898 1.460937,-0.2168 l 0,-0.5547 c -0.865449,0.054 -2.041805,0.08 -3.5292964,0.08 -1.577643,0 -2.75865553,-0.026 -3.54296922616,-0.08 z m 0.26953119616,19 0,1 17.00000023,0 0,-1 -17.00000023,0 z"
       style="fill:#f2f1ef;fill-opacity:1" />
  </g>
</svg>
