<?xml version="1.0" encoding="UTF-8" standalone="no"?>
<!-- Created with Inkscape (http://www.inkscape.org/) -->

<svg
   xmlns:dc="http://purl.org/dc/elements/1.1/"
   xmlns:cc="http://creativecommons.org/ns#"
   xmlns:rdf="http://www.w3.org/1999/02/22-rdf-syntax-ns#"
   xmlns:svg="http://www.w3.org/2000/svg"
   xmlns="http://www.w3.org/2000/svg"
   xmlns:sodipodi="http://sodipodi.sourceforge.net/DTD/sodipodi-0.dtd"
   xmlns:inkscape="http://www.inkscape.org/namespaces/inkscape"
   width="28"
   height="28"
   viewBox="0 0 28 28"
   id="svg4382"
   version="1.1"
   inkscape:version="0.91 r13725"
   sodipodi:docname="user-dark.svg">
  <defs
     id="defs4384" />
  <sodipodi:namedview
     id="base"
     pagecolor="#ffffff"
     bordercolor="#666666"
     borderopacity="1.0"
     inkscape:pageopacity="0.0"
     inkscape:pageshadow="2"
     inkscape:zoom="22.627417"
     inkscape:cx="16.91083"
     inkscape:cy="10.641757"
     inkscape:document-units="px"
     inkscape:current-layer="layer1"
     showgrid="true"
     units="px"
     inkscape:window-width="1855"
     inkscape:window-height="1056"
     inkscape:window-x="65"
     inkscape:window-y="24"
     inkscape:window-maximized="1"
     inkscape:object-nodes="true">
    <inkscape:grid
       type="xygrid"
       id="grid8753" />
  </sodipodi:namedview>
  <metadata
     id="metadata4387">
    <rdf:RDF>
      <cc:Work
         rdf:about="">
        <dc:format>image/svg+xml</dc:format>
        <dc:type
           rdf:resource="http://purl.org/dc/dcmitype/StillImage" />
        <dc:title></dc:title>
      </cc:Work>
    </rdf:RDF>
  </metadata>
  <g
     inkscape:label="Layer 1"
     inkscape:groupmode="layer"
     id="layer1"
     transform="translate(0,-1024.3622)">
    <path
       style="color:#000000;font-style:normal;font-variant:normal;font-weight:normal;font-stretch:normal;font-size:medium;line-height:normal;font-family:sans-serif;text-indent:0;text-align:start;text-decoration:none;text-decoration-line:none;text-decoration-style:solid;text-decoration-color:#000000;letter-spacing:normal;word-spacing:normal;text-transform:none;direction:ltr;block-progression:tb;writing-mode:lr-tb;baseline-shift:baseline;text-anchor:start;white-space:normal;clip-rule:nonzero;display:inline;overflow:visible;visibility:visible;opacity:1;isolation:auto;mix-blend-mode:normal;color-interpolation:sRGB;color-interpolation-filters:linearRGB;solid-color:#000000;solid-opacity:1;fill:#4d4849;fill-opacity:1;fill-rule:nonzero;stroke:none;stroke-width:0.99999994;stroke-linecap:square;stroke-linejoin:miter;stroke-miterlimit:4;stroke-dasharray:none;stroke-dashoffset:0;stroke-opacity:1;color-rendering:auto;image-rendering:auto;shape-rendering:auto;text-rendering:auto;enable-background:accumulate"
       d="m 13.999026,1030.3622 c -2.736068,0 -4.8125015,2.0531 -4.8125015,4.793 0,1.1894 0.406935,2.2481 1.0722655,3.084 -1.3799445,0.5588 -2.1477095,1.4537 -2.6035155,2.4238 -0.466758,0.9934 -1.048829,4.6992 -1.048829,4.6992 l 1,0 12.9999995,0 0.787109,0 c 0,0 -0.58207,-3.7058 -1.048828,-4.6992 -0.455618,-0.9697 -1.224553,-1.865 -2.603516,-2.4238 0.665746,-0.8359 1.072266,-1.8946 1.072266,-3.084 0,-2.7399 -2.078384,-4.793 -4.814451,-4.793 z m 0,1 c 2.256205,0 3.81445,1.5382 3.81445,3.793 0,2.2548 -1.568734,3.873 -3.81445,3.873 -2.245718,0 -3.8125,-1.6182 -3.8125,-3.873 0,-2.2548 1.556293,-3.793 3.8125,-3.793 z m -2.970704,7.6445 c 0.808697,0.6329 1.823721,1.0215 2.970704,1.0215 1.147351,0 2.16344,-0.3882 2.972652,-1.0215 l 0.314454,0.1211 c 1.227925,0.4724 1.759673,1.1253 2.152344,1.961 0.227622,0.4844 0.500445,2.5087 0.650391,3.2734 l -12.1777335,0 c 0.149946,-0.7647 0.422769,-2.789 0.650391,-3.2734 0.392669,-0.8357 0.924419,-1.4886 2.1523445,-1.961 z"
       id="path5918-9"
       inkscape:connector-curvature="0"
       sodipodi:nodetypes="sscsccccscssssssscscccccccc" />
  </g>
</svg>
